G04 #@! TF.FileFunction,Soldermask,Bot*
%FSLAX46Y46*%
G04 Gerber Fmt 4.6, Leading zero omitted, Abs format (unit mm)*
G04 Created by KiCad (PCBNEW 4.0.7-e2-6376~58~ubuntu16.04.1) date Fri Dec 22 02:34:49 2017*
%MOMM*%
%LPD*%
G01*
G04 APERTURE LIST*
%ADD10C,0.100000*%
%ADD11R,1.350000X1.350000*%
%ADD12R,2.000000X2.000000*%
%ADD13O,2.000000X2.000000*%
%ADD14C,2.300000*%
%ADD15C,1.600000*%
%ADD16C,3.000000*%
%ADD17C,2.400000*%
%ADD18C,4.387800*%
%ADD19C,2.101800*%
%ADD20C,1.924000*%
%ADD21C,2.000000*%
G04 APERTURE END LIST*
D10*
D11*
X98425000Y-128630000D03*
D12*
X98425000Y-121920000D03*
D13*
X98425000Y-132080000D03*
D11*
X98425000Y-125370000D03*
X117475000Y-128630000D03*
D12*
X117475000Y-121920000D03*
D13*
X117475000Y-132080000D03*
D11*
X117475000Y-125370000D03*
X136525000Y-128630000D03*
D12*
X136525000Y-121920000D03*
D13*
X136525000Y-132080000D03*
D11*
X136525000Y-125370000D03*
X155575000Y-128630000D03*
D12*
X155575000Y-121920000D03*
D13*
X155575000Y-132080000D03*
D11*
X155575000Y-125370000D03*
D14*
X83400000Y-127000000D03*
X94400000Y-127000000D03*
D15*
X83680000Y-122800000D03*
X94120000Y-122800000D03*
D16*
X93900000Y-130800000D03*
X83900000Y-130800000D03*
X88900000Y-132900000D03*
D17*
X86163371Y-122291206D02*
X85286629Y-124088794D01*
D16*
X92710000Y-124460000D03*
X91440000Y-121920000D03*
X86360000Y-121920000D03*
D18*
X88900000Y-127000000D03*
D19*
X83820000Y-127000000D03*
X93980000Y-127000000D03*
D16*
X85090000Y-124460000D03*
D17*
X91636629Y-122291206D02*
X92513371Y-124088794D01*
D14*
X102450000Y-127000000D03*
X113450000Y-127000000D03*
D15*
X102730000Y-122800000D03*
X113170000Y-122800000D03*
D16*
X112950000Y-130800000D03*
X102950000Y-130800000D03*
X107950000Y-132900000D03*
D17*
X105213371Y-122291206D02*
X104336629Y-124088794D01*
D16*
X111760000Y-124460000D03*
X110490000Y-121920000D03*
X105410000Y-121920000D03*
D18*
X107950000Y-127000000D03*
D19*
X102870000Y-127000000D03*
X113030000Y-127000000D03*
D16*
X104140000Y-124460000D03*
D17*
X110686629Y-122291206D02*
X111563371Y-124088794D01*
D14*
X121500000Y-127000000D03*
X132500000Y-127000000D03*
D15*
X121780000Y-122800000D03*
X132220000Y-122800000D03*
D16*
X132000000Y-130800000D03*
X122000000Y-130800000D03*
X127000000Y-132900000D03*
D17*
X124263371Y-122291206D02*
X123386629Y-124088794D01*
D16*
X130810000Y-124460000D03*
X129540000Y-121920000D03*
X124460000Y-121920000D03*
D18*
X127000000Y-127000000D03*
D19*
X121920000Y-127000000D03*
X132080000Y-127000000D03*
D16*
X123190000Y-124460000D03*
D17*
X129736629Y-122291206D02*
X130613371Y-124088794D01*
D14*
X140550000Y-127000000D03*
X151550000Y-127000000D03*
D15*
X140830000Y-122800000D03*
X151270000Y-122800000D03*
D16*
X151050000Y-130800000D03*
X141050000Y-130800000D03*
X146050000Y-132900000D03*
D17*
X143313371Y-122291206D02*
X142436629Y-124088794D01*
D16*
X149860000Y-124460000D03*
X148590000Y-121920000D03*
X143510000Y-121920000D03*
D18*
X146050000Y-127000000D03*
D19*
X140970000Y-127000000D03*
X151130000Y-127000000D03*
D16*
X142240000Y-124460000D03*
D17*
X148786629Y-122291206D02*
X149663371Y-124088794D01*
D20*
X121285000Y-101600000D03*
X121285000Y-106680000D03*
D12*
X83820000Y-111760000D03*
D21*
X86360000Y-111760000D03*
X88900000Y-111760000D03*
X91440000Y-111760000D03*
X93980000Y-111760000D03*
X96520000Y-111760000D03*
X99060000Y-111760000D03*
X101600000Y-111760000D03*
X104140000Y-111760000D03*
X106680000Y-111760000D03*
X109220000Y-111760000D03*
X111760000Y-111760000D03*
X111760000Y-96520000D03*
X109220000Y-96520000D03*
X106680000Y-96520000D03*
X104140000Y-96520000D03*
X101600000Y-96520000D03*
X99060000Y-96520000D03*
X96520000Y-96520000D03*
X93980000Y-96520000D03*
X91440000Y-96520000D03*
X88900000Y-96520000D03*
X86360000Y-96520000D03*
X83820000Y-96520000D03*
M02*
