M48
;DRILL file {KiCad 4.0.7-e2-6376~58~ubuntu16.04.1} date Fri Dec 22 02:35:38 2017
;FORMAT={3:3/ absolute / metric / suppress leading zeros}
FMAT,2
METRIC,TZ
T1C0.400
T2C0.762
T3C0.800
T4C1.000
T5C1.100
T6C1.600
T7C1.200
T8C1.702
T9C1.900
T10C3.988
%
G90
G05
M71
T1
X98425Y-125370
X98425Y-128630
X117475Y-125370
X117475Y-128630
X136525Y-125370
X136525Y-128630
X155575Y-125370
X155575Y-128630
T2
X121285Y-101600
X121285Y-106680
T3
X98425Y-121920
X98425Y-132080
X117475Y-121920
X117475Y-132080
X136525Y-121920
X136525Y-132080
X155575Y-121920
X155575Y-132080
T5
X83820Y-96520
X83820Y-111760
X86360Y-96520
X86360Y-111760
X88900Y-96520
X88900Y-111760
X91440Y-96520
X91440Y-111760
X93980Y-96520
X93980Y-111760
X96520Y-96520
X96520Y-111760
X99060Y-96520
X99060Y-111760
X101600Y-96520
X101600Y-111760
X104140Y-96520
X104140Y-111760
X106680Y-96520
X106680Y-111760
X109220Y-96520
X109220Y-111760
X111760Y-96520
X111760Y-111760
T6
X83900Y-130800
X85090Y-124460
X86360Y-121920
X88900Y-132900
X91440Y-121920
X92710Y-124460
X93900Y-130800
X102950Y-130800
X104140Y-124460
X105410Y-121920
X107950Y-132900
X110490Y-121920
X111760Y-124460
X112950Y-130800
X122000Y-130800
X123190Y-124460
X124460Y-121920
X127000Y-132900
X129540Y-121920
X130810Y-124460
X132000Y-130800
X141050Y-130800
X142240Y-124460
X143510Y-121920
X146050Y-132900
X148590Y-121920
X149860Y-124460
X151050Y-130800
T7
X83680Y-122800
X94120Y-122800
X102730Y-122800
X113170Y-122800
X121780Y-122800
X132220Y-122800
X140830Y-122800
X151270Y-122800
T8
X83820Y-127000
X93980Y-127000
X102870Y-127000
X113030Y-127000
X121920Y-127000
X132080Y-127000
X140970Y-127000
X151130Y-127000
T9
X83400Y-127000
X94400Y-127000
X102450Y-127000
X113450Y-127000
X121500Y-127000
X132500Y-127000
X140550Y-127000
X151550Y-127000
T10
X88900Y-127000
X107950Y-127000
X127000Y-127000
X146050Y-127000
T4
X86163Y-122291G85X85287Y-124089
G05
X91637Y-122291G85X92513Y-124089
G05
X105213Y-122291G85X104337Y-124089
G05
X110687Y-122291G85X111563Y-124089
G05
X124263Y-122291G85X123387Y-124089
G05
X129737Y-122291G85X130613Y-124089
G05
X143313Y-122291G85X142437Y-124089
G05
X148787Y-122291G85X149663Y-124089
G05
T0
M30
