G04 #@! TF.FileFunction,Copper,L2,Bot,Signal*
%FSLAX46Y46*%
G04 Gerber Fmt 4.6, Leading zero omitted, Abs format (unit mm)*
G04 Created by KiCad (PCBNEW 4.0.7-e2-6376~58~ubuntu16.04.1) date Fri Dec 22 02:34:49 2017*
%MOMM*%
%LPD*%
G01*
G04 APERTURE LIST*
%ADD10C,0.100000*%
%ADD11R,0.950000X0.950000*%
%ADD12R,1.600000X1.600000*%
%ADD13O,1.600000X1.600000*%
%ADD14C,2.600000*%
%ADD15C,2.000000*%
%ADD16C,1.524000*%
%ADD17C,1.600000*%
%ADD18C,0.254000*%
G04 APERTURE END LIST*
D10*
D11*
X98425000Y-128630000D03*
D12*
X98425000Y-121920000D03*
D13*
X98425000Y-132080000D03*
D11*
X98425000Y-125370000D03*
X117475000Y-128630000D03*
D12*
X117475000Y-121920000D03*
D13*
X117475000Y-132080000D03*
D11*
X117475000Y-125370000D03*
X136525000Y-128630000D03*
D12*
X136525000Y-121920000D03*
D13*
X136525000Y-132080000D03*
D11*
X136525000Y-125370000D03*
X155575000Y-128630000D03*
D12*
X155575000Y-121920000D03*
D13*
X155575000Y-132080000D03*
D11*
X155575000Y-125370000D03*
D14*
X93900000Y-130800000D03*
X83900000Y-130800000D03*
X88900000Y-132900000D03*
D15*
X86163371Y-122291206D02*
X85286629Y-124088794D01*
D14*
X92710000Y-124460000D03*
X91440000Y-121920000D03*
X86360000Y-121920000D03*
X85090000Y-124460000D03*
D15*
X91636629Y-122291206D02*
X92513371Y-124088794D01*
D14*
X112950000Y-130800000D03*
X102950000Y-130800000D03*
X107950000Y-132900000D03*
D15*
X105213371Y-122291206D02*
X104336629Y-124088794D01*
D14*
X111760000Y-124460000D03*
X110490000Y-121920000D03*
X105410000Y-121920000D03*
X104140000Y-124460000D03*
D15*
X110686629Y-122291206D02*
X111563371Y-124088794D01*
D14*
X132000000Y-130800000D03*
X122000000Y-130800000D03*
X127000000Y-132900000D03*
D15*
X124263371Y-122291206D02*
X123386629Y-124088794D01*
D14*
X130810000Y-124460000D03*
X129540000Y-121920000D03*
X124460000Y-121920000D03*
X123190000Y-124460000D03*
D15*
X129736629Y-122291206D02*
X130613371Y-124088794D01*
D14*
X151050000Y-130800000D03*
X141050000Y-130800000D03*
X146050000Y-132900000D03*
D15*
X143313371Y-122291206D02*
X142436629Y-124088794D01*
D14*
X149860000Y-124460000D03*
X148590000Y-121920000D03*
X143510000Y-121920000D03*
X142240000Y-124460000D03*
D15*
X148786629Y-122291206D02*
X149663371Y-124088794D01*
D16*
X121285000Y-101600000D03*
X121285000Y-106680000D03*
D12*
X83820000Y-111760000D03*
D17*
X86360000Y-111760000D03*
X88900000Y-111760000D03*
X91440000Y-111760000D03*
X93980000Y-111760000D03*
X96520000Y-111760000D03*
X99060000Y-111760000D03*
X101600000Y-111760000D03*
X104140000Y-111760000D03*
X106680000Y-111760000D03*
X109220000Y-111760000D03*
X111760000Y-111760000D03*
X111760000Y-96520000D03*
X109220000Y-96520000D03*
X106680000Y-96520000D03*
X104140000Y-96520000D03*
X101600000Y-96520000D03*
X99060000Y-96520000D03*
X96520000Y-96520000D03*
X93980000Y-96520000D03*
X91440000Y-96520000D03*
X88900000Y-96520000D03*
X86360000Y-96520000D03*
X83820000Y-96520000D03*
D18*
X100330000Y-100330000D02*
X104140000Y-96520000D01*
X93980000Y-100330000D02*
X100330000Y-100330000D01*
X90170000Y-104140000D02*
X93980000Y-100330000D01*
X90170000Y-113665000D02*
X90170000Y-104140000D01*
X85725000Y-118110000D02*
X90170000Y-113665000D01*
X85725000Y-123190000D02*
X85725000Y-118110000D01*
X88900000Y-132900000D02*
X88900000Y-132080000D01*
X88900000Y-132080000D02*
X85725000Y-128905000D01*
X85725000Y-128905000D02*
X85725000Y-123190000D01*
X104775000Y-123190000D02*
X104775000Y-114935000D01*
X105410000Y-97790000D02*
X106680000Y-96520000D01*
X105410000Y-114300000D02*
X105410000Y-97790000D01*
X104775000Y-114935000D02*
X105410000Y-114300000D01*
X107950000Y-132900000D02*
X107950000Y-132080000D01*
X107950000Y-132080000D02*
X104775000Y-128905000D01*
X104775000Y-128905000D02*
X104775000Y-123190000D01*
X123825000Y-123190000D02*
X123825000Y-116840000D01*
X109220000Y-102235000D02*
X109220000Y-96520000D01*
X123825000Y-116840000D02*
X109220000Y-102235000D01*
X127000000Y-132900000D02*
X127000000Y-132080000D01*
X127000000Y-132080000D02*
X123825000Y-128905000D01*
X123825000Y-128905000D02*
X123825000Y-123190000D01*
X142875000Y-123190000D02*
X142875000Y-102235000D01*
X137160000Y-96520000D02*
X111760000Y-96520000D01*
X142875000Y-102235000D02*
X137160000Y-96520000D01*
X146050000Y-132900000D02*
X146050000Y-132080000D01*
X146050000Y-132080000D02*
X142875000Y-128905000D01*
X142875000Y-128905000D02*
X142875000Y-123190000D01*
G36*
X164390000Y-89194092D02*
X164390000Y-140675908D01*
X163535908Y-141530000D01*
X75224092Y-141530000D01*
X74370000Y-140675908D01*
X74370000Y-127313893D01*
X81814725Y-127313893D01*
X82055519Y-127896657D01*
X82500997Y-128342914D01*
X83083341Y-128584724D01*
X83713893Y-128585275D01*
X83954112Y-128486018D01*
X84114267Y-128486158D01*
X84660595Y-128260420D01*
X84963000Y-127958543D01*
X84963000Y-128905000D01*
X85017889Y-129180947D01*
X84997521Y-129160543D01*
X84286584Y-128865337D01*
X83516793Y-128864665D01*
X82805342Y-129158630D01*
X82260543Y-129702479D01*
X81965337Y-130413416D01*
X81964665Y-131183207D01*
X82258630Y-131894658D01*
X82802479Y-132439457D01*
X83513416Y-132734663D01*
X84283207Y-132735335D01*
X84994658Y-132441370D01*
X85539457Y-131897521D01*
X85834663Y-131186584D01*
X85835335Y-130416793D01*
X85607318Y-129864948D01*
X87402820Y-131660450D01*
X87260543Y-131802479D01*
X86965337Y-132513416D01*
X86964665Y-133283207D01*
X87258630Y-133994658D01*
X87802479Y-134539457D01*
X88513416Y-134834663D01*
X89283207Y-134835335D01*
X89994658Y-134541370D01*
X90539457Y-133997521D01*
X90834663Y-133286584D01*
X90835335Y-132516793D01*
X90541370Y-131805342D01*
X89997521Y-131260543D01*
X89811275Y-131183207D01*
X91964665Y-131183207D01*
X92258630Y-131894658D01*
X92802479Y-132439457D01*
X93513416Y-132734663D01*
X94283207Y-132735335D01*
X94994658Y-132441370D01*
X95384821Y-132051887D01*
X96990000Y-132051887D01*
X96990000Y-132108113D01*
X97099233Y-132657264D01*
X97410302Y-133122811D01*
X97875849Y-133433880D01*
X98425000Y-133543113D01*
X98974151Y-133433880D01*
X99439698Y-133122811D01*
X99750767Y-132657264D01*
X99860000Y-132108113D01*
X99860000Y-132051887D01*
X99750767Y-131502736D01*
X99439698Y-131037189D01*
X98974151Y-130726120D01*
X98425000Y-130616887D01*
X97875849Y-130726120D01*
X97410302Y-131037189D01*
X97099233Y-131502736D01*
X96990000Y-132051887D01*
X95384821Y-132051887D01*
X95539457Y-131897521D01*
X95834663Y-131186584D01*
X95835335Y-130416793D01*
X95541370Y-129705342D01*
X94997521Y-129160543D01*
X94286584Y-128865337D01*
X93516793Y-128864665D01*
X92805342Y-129158630D01*
X92260543Y-129702479D01*
X91965337Y-130413416D01*
X91964665Y-131183207D01*
X89811275Y-131183207D01*
X89286584Y-130965337D01*
X88862597Y-130964967D01*
X86487000Y-128589370D01*
X86487000Y-128044245D01*
X86670028Y-128487207D01*
X87408904Y-129227373D01*
X88374785Y-129628442D01*
X89420626Y-129629355D01*
X90387207Y-129229972D01*
X91127373Y-128491096D01*
X91528442Y-127525215D01*
X91529355Y-126479374D01*
X91202809Y-125689071D01*
X91612479Y-126099457D01*
X92323416Y-126394663D01*
X92622340Y-126394924D01*
X92494358Y-126703139D01*
X92493842Y-127294267D01*
X92719580Y-127840595D01*
X93137206Y-128258951D01*
X93683139Y-128485642D01*
X93845065Y-128485783D01*
X94083341Y-128584724D01*
X94713893Y-128585275D01*
X95296657Y-128344481D01*
X95486469Y-128155000D01*
X97302560Y-128155000D01*
X97302560Y-129105000D01*
X97346838Y-129340317D01*
X97485910Y-129556441D01*
X97698110Y-129701431D01*
X97950000Y-129752440D01*
X98900000Y-129752440D01*
X99135317Y-129708162D01*
X99351441Y-129569090D01*
X99496431Y-129356890D01*
X99547440Y-129105000D01*
X99547440Y-128155000D01*
X99503162Y-127919683D01*
X99364090Y-127703559D01*
X99151890Y-127558569D01*
X98900000Y-127507560D01*
X97950000Y-127507560D01*
X97714683Y-127551838D01*
X97498559Y-127690910D01*
X97353569Y-127903110D01*
X97302560Y-128155000D01*
X95486469Y-128155000D01*
X95742914Y-127899003D01*
X95984724Y-127316659D01*
X95985275Y-126686107D01*
X95744481Y-126103343D01*
X95299003Y-125657086D01*
X94716659Y-125415276D01*
X94408634Y-125415007D01*
X94624558Y-124895000D01*
X97302560Y-124895000D01*
X97302560Y-125845000D01*
X97346838Y-126080317D01*
X97485910Y-126296441D01*
X97698110Y-126441431D01*
X97950000Y-126492440D01*
X98900000Y-126492440D01*
X99135317Y-126448162D01*
X99351441Y-126309090D01*
X99496431Y-126096890D01*
X99547440Y-125845000D01*
X99547440Y-124895000D01*
X99503162Y-124659683D01*
X99364090Y-124443559D01*
X99151890Y-124298569D01*
X98900000Y-124247560D01*
X97950000Y-124247560D01*
X97714683Y-124291838D01*
X97498559Y-124430910D01*
X97353569Y-124643110D01*
X97302560Y-124895000D01*
X94624558Y-124895000D01*
X94644663Y-124846584D01*
X94645335Y-124076793D01*
X94589718Y-123942188D01*
X94818657Y-123847592D01*
X95166371Y-123500485D01*
X95354785Y-123046734D01*
X95355214Y-122555421D01*
X95167592Y-122101343D01*
X94820485Y-121753629D01*
X94366734Y-121565215D01*
X93875421Y-121564786D01*
X93421343Y-121752408D01*
X93375106Y-121798564D01*
X93375335Y-121536793D01*
X93203120Y-121120000D01*
X96977560Y-121120000D01*
X96977560Y-122720000D01*
X97021838Y-122955317D01*
X97160910Y-123171441D01*
X97373110Y-123316431D01*
X97625000Y-123367440D01*
X99225000Y-123367440D01*
X99460317Y-123323162D01*
X99676441Y-123184090D01*
X99821431Y-122971890D01*
X99872440Y-122720000D01*
X99872440Y-121120000D01*
X99828162Y-120884683D01*
X99689090Y-120668559D01*
X99476890Y-120523569D01*
X99225000Y-120472560D01*
X97625000Y-120472560D01*
X97389683Y-120516838D01*
X97173559Y-120655910D01*
X97028569Y-120868110D01*
X96977560Y-121120000D01*
X93203120Y-121120000D01*
X93081370Y-120825342D01*
X92537521Y-120280543D01*
X91826584Y-119985337D01*
X91056793Y-119984665D01*
X90345342Y-120278630D01*
X89800543Y-120822479D01*
X89505337Y-121533416D01*
X89504665Y-122303207D01*
X89798630Y-123014658D01*
X90342479Y-123559457D01*
X90459866Y-123608200D01*
X90775179Y-124254687D01*
X90774665Y-124843207D01*
X90995794Y-125378380D01*
X90391096Y-124772627D01*
X89425215Y-124371558D01*
X88379374Y-124370645D01*
X87412793Y-124770028D01*
X86804171Y-125377589D01*
X87024663Y-124846584D01*
X87025180Y-124253951D01*
X87339835Y-123608814D01*
X87454658Y-123561370D01*
X87999457Y-123017521D01*
X88294663Y-122306584D01*
X88295335Y-121536793D01*
X88001370Y-120825342D01*
X87457521Y-120280543D01*
X86746584Y-119985337D01*
X86487000Y-119985110D01*
X86487000Y-118425630D01*
X90708815Y-114203816D01*
X90873996Y-113956605D01*
X90932000Y-113665000D01*
X90932000Y-113102288D01*
X91223223Y-113206965D01*
X91793454Y-113179778D01*
X92194005Y-113013864D01*
X92268139Y-112767745D01*
X91440000Y-111939605D01*
X91425858Y-111953748D01*
X91246253Y-111774143D01*
X91260395Y-111760000D01*
X91246253Y-111745858D01*
X91425858Y-111566252D01*
X91440000Y-111580395D01*
X92268139Y-110752255D01*
X92194005Y-110506136D01*
X91656777Y-110313035D01*
X91086546Y-110340222D01*
X90932000Y-110404237D01*
X90932000Y-104455630D01*
X94295631Y-101092000D01*
X100330000Y-101092000D01*
X100621605Y-101033996D01*
X100868815Y-100868815D01*
X103803545Y-97934086D01*
X103853309Y-97954750D01*
X104424187Y-97955248D01*
X104648000Y-97862770D01*
X104648000Y-110417146D01*
X104426691Y-110325250D01*
X103855813Y-110324752D01*
X103328200Y-110542757D01*
X102924176Y-110946077D01*
X102870138Y-111076215D01*
X102817243Y-110948200D01*
X102413923Y-110544176D01*
X101886691Y-110325250D01*
X101315813Y-110324752D01*
X100788200Y-110542757D01*
X100384176Y-110946077D01*
X100330138Y-111076215D01*
X100277243Y-110948200D01*
X99873923Y-110544176D01*
X99346691Y-110325250D01*
X98775813Y-110324752D01*
X98248200Y-110542757D01*
X97844176Y-110946077D01*
X97790138Y-111076215D01*
X97737243Y-110948200D01*
X97333923Y-110544176D01*
X96806691Y-110325250D01*
X96235813Y-110324752D01*
X95708200Y-110542757D01*
X95304176Y-110946077D01*
X95250138Y-111076215D01*
X95197243Y-110948200D01*
X94793923Y-110544176D01*
X94266691Y-110325250D01*
X93695813Y-110324752D01*
X93168200Y-110542757D01*
X92764176Y-110946077D01*
X92716552Y-111060768D01*
X92693864Y-111005995D01*
X92447745Y-110931861D01*
X91619605Y-111760000D01*
X92447745Y-112588139D01*
X92693864Y-112514005D01*
X92714805Y-112455746D01*
X92762757Y-112571800D01*
X93166077Y-112975824D01*
X93693309Y-113194750D01*
X94264187Y-113195248D01*
X94791800Y-112977243D01*
X95195824Y-112573923D01*
X95249862Y-112443785D01*
X95302757Y-112571800D01*
X95706077Y-112975824D01*
X96233309Y-113194750D01*
X96804187Y-113195248D01*
X97331800Y-112977243D01*
X97735824Y-112573923D01*
X97789862Y-112443785D01*
X97842757Y-112571800D01*
X98246077Y-112975824D01*
X98773309Y-113194750D01*
X99344187Y-113195248D01*
X99871800Y-112977243D01*
X100275824Y-112573923D01*
X100329862Y-112443785D01*
X100382757Y-112571800D01*
X100786077Y-112975824D01*
X101313309Y-113194750D01*
X101884187Y-113195248D01*
X102411800Y-112977243D01*
X102815824Y-112573923D01*
X102869862Y-112443785D01*
X102922757Y-112571800D01*
X103326077Y-112975824D01*
X103853309Y-113194750D01*
X104424187Y-113195248D01*
X104648000Y-113102770D01*
X104648000Y-113984369D01*
X104236185Y-114396185D01*
X104071004Y-114643395D01*
X104013000Y-114935000D01*
X104013000Y-120580445D01*
X103770543Y-120822479D01*
X103475337Y-121533416D01*
X103475106Y-121798328D01*
X103430485Y-121753629D01*
X102976734Y-121565215D01*
X102485421Y-121564786D01*
X102031343Y-121752408D01*
X101683629Y-122099515D01*
X101495215Y-122553266D01*
X101494786Y-123044579D01*
X101682408Y-123498657D01*
X102029515Y-123846371D01*
X102259892Y-123942032D01*
X102205337Y-124073416D01*
X102204665Y-124843207D01*
X102440921Y-125414991D01*
X102136107Y-125414725D01*
X101553343Y-125655519D01*
X101107086Y-126100997D01*
X100865276Y-126683341D01*
X100864725Y-127313893D01*
X101105519Y-127896657D01*
X101550997Y-128342914D01*
X102133341Y-128584724D01*
X102763893Y-128585275D01*
X103004112Y-128486018D01*
X103164267Y-128486158D01*
X103710595Y-128260420D01*
X104013000Y-127958543D01*
X104013000Y-128905000D01*
X104067889Y-129180947D01*
X104047521Y-129160543D01*
X103336584Y-128865337D01*
X102566793Y-128864665D01*
X101855342Y-129158630D01*
X101310543Y-129702479D01*
X101015337Y-130413416D01*
X101014665Y-131183207D01*
X101308630Y-131894658D01*
X101852479Y-132439457D01*
X102563416Y-132734663D01*
X103333207Y-132735335D01*
X104044658Y-132441370D01*
X104589457Y-131897521D01*
X104884663Y-131186584D01*
X104885335Y-130416793D01*
X104657318Y-129864948D01*
X106452820Y-131660450D01*
X106310543Y-131802479D01*
X106015337Y-132513416D01*
X106014665Y-133283207D01*
X106308630Y-133994658D01*
X106852479Y-134539457D01*
X107563416Y-134834663D01*
X108333207Y-134835335D01*
X109044658Y-134541370D01*
X109589457Y-133997521D01*
X109884663Y-133286584D01*
X109885335Y-132516793D01*
X109591370Y-131805342D01*
X109047521Y-131260543D01*
X108861275Y-131183207D01*
X111014665Y-131183207D01*
X111308630Y-131894658D01*
X111852479Y-132439457D01*
X112563416Y-132734663D01*
X113333207Y-132735335D01*
X114044658Y-132441370D01*
X114434821Y-132051887D01*
X116040000Y-132051887D01*
X116040000Y-132108113D01*
X116149233Y-132657264D01*
X116460302Y-133122811D01*
X116925849Y-133433880D01*
X117475000Y-133543113D01*
X118024151Y-133433880D01*
X118489698Y-133122811D01*
X118800767Y-132657264D01*
X118910000Y-132108113D01*
X118910000Y-132051887D01*
X118800767Y-131502736D01*
X118489698Y-131037189D01*
X118024151Y-130726120D01*
X117475000Y-130616887D01*
X116925849Y-130726120D01*
X116460302Y-131037189D01*
X116149233Y-131502736D01*
X116040000Y-132051887D01*
X114434821Y-132051887D01*
X114589457Y-131897521D01*
X114884663Y-131186584D01*
X114885335Y-130416793D01*
X114591370Y-129705342D01*
X114047521Y-129160543D01*
X113336584Y-128865337D01*
X112566793Y-128864665D01*
X111855342Y-129158630D01*
X111310543Y-129702479D01*
X111015337Y-130413416D01*
X111014665Y-131183207D01*
X108861275Y-131183207D01*
X108336584Y-130965337D01*
X107912597Y-130964967D01*
X105537000Y-128589370D01*
X105537000Y-128044245D01*
X105720028Y-128487207D01*
X106458904Y-129227373D01*
X107424785Y-129628442D01*
X108470626Y-129629355D01*
X109437207Y-129229972D01*
X110177373Y-128491096D01*
X110578442Y-127525215D01*
X110579355Y-126479374D01*
X110252809Y-125689071D01*
X110662479Y-126099457D01*
X111373416Y-126394663D01*
X111672340Y-126394924D01*
X111544358Y-126703139D01*
X111543842Y-127294267D01*
X111769580Y-127840595D01*
X112187206Y-128258951D01*
X112733139Y-128485642D01*
X112895065Y-128485783D01*
X113133341Y-128584724D01*
X113763893Y-128585275D01*
X114346657Y-128344481D01*
X114536469Y-128155000D01*
X116352560Y-128155000D01*
X116352560Y-129105000D01*
X116396838Y-129340317D01*
X116535910Y-129556441D01*
X116748110Y-129701431D01*
X117000000Y-129752440D01*
X117950000Y-129752440D01*
X118185317Y-129708162D01*
X118401441Y-129569090D01*
X118546431Y-129356890D01*
X118597440Y-129105000D01*
X118597440Y-128155000D01*
X118553162Y-127919683D01*
X118414090Y-127703559D01*
X118201890Y-127558569D01*
X117950000Y-127507560D01*
X117000000Y-127507560D01*
X116764683Y-127551838D01*
X116548559Y-127690910D01*
X116403569Y-127903110D01*
X116352560Y-128155000D01*
X114536469Y-128155000D01*
X114792914Y-127899003D01*
X115034724Y-127316659D01*
X115035275Y-126686107D01*
X114794481Y-126103343D01*
X114349003Y-125657086D01*
X113766659Y-125415276D01*
X113458634Y-125415007D01*
X113674558Y-124895000D01*
X116352560Y-124895000D01*
X116352560Y-125845000D01*
X116396838Y-126080317D01*
X116535910Y-126296441D01*
X116748110Y-126441431D01*
X117000000Y-126492440D01*
X117950000Y-126492440D01*
X118185317Y-126448162D01*
X118401441Y-126309090D01*
X118546431Y-126096890D01*
X118597440Y-125845000D01*
X118597440Y-124895000D01*
X118553162Y-124659683D01*
X118414090Y-124443559D01*
X118201890Y-124298569D01*
X117950000Y-124247560D01*
X117000000Y-124247560D01*
X116764683Y-124291838D01*
X116548559Y-124430910D01*
X116403569Y-124643110D01*
X116352560Y-124895000D01*
X113674558Y-124895000D01*
X113694663Y-124846584D01*
X113695335Y-124076793D01*
X113639718Y-123942188D01*
X113868657Y-123847592D01*
X114216371Y-123500485D01*
X114404785Y-123046734D01*
X114405214Y-122555421D01*
X114217592Y-122101343D01*
X113870485Y-121753629D01*
X113416734Y-121565215D01*
X112925421Y-121564786D01*
X112471343Y-121752408D01*
X112425106Y-121798564D01*
X112425335Y-121536793D01*
X112253120Y-121120000D01*
X116027560Y-121120000D01*
X116027560Y-122720000D01*
X116071838Y-122955317D01*
X116210910Y-123171441D01*
X116423110Y-123316431D01*
X116675000Y-123367440D01*
X118275000Y-123367440D01*
X118510317Y-123323162D01*
X118726441Y-123184090D01*
X118871431Y-122971890D01*
X118922440Y-122720000D01*
X118922440Y-121120000D01*
X118878162Y-120884683D01*
X118739090Y-120668559D01*
X118526890Y-120523569D01*
X118275000Y-120472560D01*
X116675000Y-120472560D01*
X116439683Y-120516838D01*
X116223559Y-120655910D01*
X116078569Y-120868110D01*
X116027560Y-121120000D01*
X112253120Y-121120000D01*
X112131370Y-120825342D01*
X111587521Y-120280543D01*
X110876584Y-119985337D01*
X110106793Y-119984665D01*
X109395342Y-120278630D01*
X108850543Y-120822479D01*
X108555337Y-121533416D01*
X108554665Y-122303207D01*
X108848630Y-123014658D01*
X109392479Y-123559457D01*
X109509866Y-123608200D01*
X109825179Y-124254687D01*
X109824665Y-124843207D01*
X110045794Y-125378380D01*
X109441096Y-124772627D01*
X108475215Y-124371558D01*
X107429374Y-124370645D01*
X106462793Y-124770028D01*
X105854171Y-125377589D01*
X106074663Y-124846584D01*
X106075180Y-124253951D01*
X106389835Y-123608814D01*
X106504658Y-123561370D01*
X107049457Y-123017521D01*
X107344663Y-122306584D01*
X107345335Y-121536793D01*
X107051370Y-120825342D01*
X106507521Y-120280543D01*
X105796584Y-119985337D01*
X105537000Y-119985110D01*
X105537000Y-115250630D01*
X105948816Y-114838815D01*
X106079391Y-114643395D01*
X106113996Y-114591605D01*
X106172000Y-114300000D01*
X106172000Y-113102854D01*
X106393309Y-113194750D01*
X106964187Y-113195248D01*
X107491800Y-112977243D01*
X107895824Y-112573923D01*
X107949862Y-112443785D01*
X108002757Y-112571800D01*
X108406077Y-112975824D01*
X108933309Y-113194750D01*
X109504187Y-113195248D01*
X110031800Y-112977243D01*
X110435824Y-112573923D01*
X110489862Y-112443785D01*
X110542757Y-112571800D01*
X110946077Y-112975824D01*
X111473309Y-113194750D01*
X112044187Y-113195248D01*
X112571800Y-112977243D01*
X112975824Y-112573923D01*
X113194750Y-112046691D01*
X113195248Y-111475813D01*
X112977243Y-110948200D01*
X112573923Y-110544176D01*
X112046691Y-110325250D01*
X111475813Y-110324752D01*
X110948200Y-110542757D01*
X110544176Y-110946077D01*
X110490138Y-111076215D01*
X110437243Y-110948200D01*
X110033923Y-110544176D01*
X109506691Y-110325250D01*
X108935813Y-110324752D01*
X108408200Y-110542757D01*
X108004176Y-110946077D01*
X107950138Y-111076215D01*
X107897243Y-110948200D01*
X107493923Y-110544176D01*
X106966691Y-110325250D01*
X106395813Y-110324752D01*
X106172000Y-110417230D01*
X106172000Y-98105630D01*
X106343544Y-97934086D01*
X106393309Y-97954750D01*
X106964187Y-97955248D01*
X107491800Y-97737243D01*
X107895824Y-97333923D01*
X107949862Y-97203785D01*
X108002757Y-97331800D01*
X108406077Y-97735824D01*
X108458000Y-97757384D01*
X108458000Y-102235000D01*
X108516004Y-102526605D01*
X108681185Y-102773815D01*
X123063000Y-117155630D01*
X123063000Y-120580445D01*
X122820543Y-120822479D01*
X122525337Y-121533416D01*
X122525106Y-121798328D01*
X122480485Y-121753629D01*
X122026734Y-121565215D01*
X121535421Y-121564786D01*
X121081343Y-121752408D01*
X120733629Y-122099515D01*
X120545215Y-122553266D01*
X120544786Y-123044579D01*
X120732408Y-123498657D01*
X121079515Y-123846371D01*
X121309892Y-123942032D01*
X121255337Y-124073416D01*
X121254665Y-124843207D01*
X121490921Y-125414991D01*
X121186107Y-125414725D01*
X120603343Y-125655519D01*
X120157086Y-126100997D01*
X119915276Y-126683341D01*
X119914725Y-127313893D01*
X120155519Y-127896657D01*
X120600997Y-128342914D01*
X121183341Y-128584724D01*
X121813893Y-128585275D01*
X122054112Y-128486018D01*
X122214267Y-128486158D01*
X122760595Y-128260420D01*
X123063000Y-127958543D01*
X123063000Y-128905000D01*
X123117889Y-129180947D01*
X123097521Y-129160543D01*
X122386584Y-128865337D01*
X121616793Y-128864665D01*
X120905342Y-129158630D01*
X120360543Y-129702479D01*
X120065337Y-130413416D01*
X120064665Y-131183207D01*
X120358630Y-131894658D01*
X120902479Y-132439457D01*
X121613416Y-132734663D01*
X122383207Y-132735335D01*
X123094658Y-132441370D01*
X123639457Y-131897521D01*
X123934663Y-131186584D01*
X123935335Y-130416793D01*
X123707318Y-129864948D01*
X125502820Y-131660450D01*
X125360543Y-131802479D01*
X125065337Y-132513416D01*
X125064665Y-133283207D01*
X125358630Y-133994658D01*
X125902479Y-134539457D01*
X126613416Y-134834663D01*
X127383207Y-134835335D01*
X128094658Y-134541370D01*
X128639457Y-133997521D01*
X128934663Y-133286584D01*
X128935335Y-132516793D01*
X128641370Y-131805342D01*
X128097521Y-131260543D01*
X127911275Y-131183207D01*
X130064665Y-131183207D01*
X130358630Y-131894658D01*
X130902479Y-132439457D01*
X131613416Y-132734663D01*
X132383207Y-132735335D01*
X133094658Y-132441370D01*
X133484821Y-132051887D01*
X135090000Y-132051887D01*
X135090000Y-132108113D01*
X135199233Y-132657264D01*
X135510302Y-133122811D01*
X135975849Y-133433880D01*
X136525000Y-133543113D01*
X137074151Y-133433880D01*
X137539698Y-133122811D01*
X137850767Y-132657264D01*
X137960000Y-132108113D01*
X137960000Y-132051887D01*
X137850767Y-131502736D01*
X137539698Y-131037189D01*
X137074151Y-130726120D01*
X136525000Y-130616887D01*
X135975849Y-130726120D01*
X135510302Y-131037189D01*
X135199233Y-131502736D01*
X135090000Y-132051887D01*
X133484821Y-132051887D01*
X133639457Y-131897521D01*
X133934663Y-131186584D01*
X133935335Y-130416793D01*
X133641370Y-129705342D01*
X133097521Y-129160543D01*
X132386584Y-128865337D01*
X131616793Y-128864665D01*
X130905342Y-129158630D01*
X130360543Y-129702479D01*
X130065337Y-130413416D01*
X130064665Y-131183207D01*
X127911275Y-131183207D01*
X127386584Y-130965337D01*
X126962597Y-130964967D01*
X124587000Y-128589370D01*
X124587000Y-128044245D01*
X124770028Y-128487207D01*
X125508904Y-129227373D01*
X126474785Y-129628442D01*
X127520626Y-129629355D01*
X128487207Y-129229972D01*
X129227373Y-128491096D01*
X129628442Y-127525215D01*
X129629355Y-126479374D01*
X129302809Y-125689071D01*
X129712479Y-126099457D01*
X130423416Y-126394663D01*
X130722340Y-126394924D01*
X130594358Y-126703139D01*
X130593842Y-127294267D01*
X130819580Y-127840595D01*
X131237206Y-128258951D01*
X131783139Y-128485642D01*
X131945065Y-128485783D01*
X132183341Y-128584724D01*
X132813893Y-128585275D01*
X133396657Y-128344481D01*
X133586469Y-128155000D01*
X135402560Y-128155000D01*
X135402560Y-129105000D01*
X135446838Y-129340317D01*
X135585910Y-129556441D01*
X135798110Y-129701431D01*
X136050000Y-129752440D01*
X137000000Y-129752440D01*
X137235317Y-129708162D01*
X137451441Y-129569090D01*
X137596431Y-129356890D01*
X137647440Y-129105000D01*
X137647440Y-128155000D01*
X137603162Y-127919683D01*
X137464090Y-127703559D01*
X137251890Y-127558569D01*
X137000000Y-127507560D01*
X136050000Y-127507560D01*
X135814683Y-127551838D01*
X135598559Y-127690910D01*
X135453569Y-127903110D01*
X135402560Y-128155000D01*
X133586469Y-128155000D01*
X133842914Y-127899003D01*
X134084724Y-127316659D01*
X134085275Y-126686107D01*
X133844481Y-126103343D01*
X133399003Y-125657086D01*
X132816659Y-125415276D01*
X132508634Y-125415007D01*
X132724558Y-124895000D01*
X135402560Y-124895000D01*
X135402560Y-125845000D01*
X135446838Y-126080317D01*
X135585910Y-126296441D01*
X135798110Y-126441431D01*
X136050000Y-126492440D01*
X137000000Y-126492440D01*
X137235317Y-126448162D01*
X137451441Y-126309090D01*
X137596431Y-126096890D01*
X137647440Y-125845000D01*
X137647440Y-124895000D01*
X137603162Y-124659683D01*
X137464090Y-124443559D01*
X137251890Y-124298569D01*
X137000000Y-124247560D01*
X136050000Y-124247560D01*
X135814683Y-124291838D01*
X135598559Y-124430910D01*
X135453569Y-124643110D01*
X135402560Y-124895000D01*
X132724558Y-124895000D01*
X132744663Y-124846584D01*
X132745335Y-124076793D01*
X132689718Y-123942188D01*
X132918657Y-123847592D01*
X133266371Y-123500485D01*
X133454785Y-123046734D01*
X133455214Y-122555421D01*
X133267592Y-122101343D01*
X132920485Y-121753629D01*
X132466734Y-121565215D01*
X131975421Y-121564786D01*
X131521343Y-121752408D01*
X131475106Y-121798564D01*
X131475335Y-121536793D01*
X131303120Y-121120000D01*
X135077560Y-121120000D01*
X135077560Y-122720000D01*
X135121838Y-122955317D01*
X135260910Y-123171441D01*
X135473110Y-123316431D01*
X135725000Y-123367440D01*
X137325000Y-123367440D01*
X137560317Y-123323162D01*
X137776441Y-123184090D01*
X137921431Y-122971890D01*
X137972440Y-122720000D01*
X137972440Y-121120000D01*
X137928162Y-120884683D01*
X137789090Y-120668559D01*
X137576890Y-120523569D01*
X137325000Y-120472560D01*
X135725000Y-120472560D01*
X135489683Y-120516838D01*
X135273559Y-120655910D01*
X135128569Y-120868110D01*
X135077560Y-121120000D01*
X131303120Y-121120000D01*
X131181370Y-120825342D01*
X130637521Y-120280543D01*
X129926584Y-119985337D01*
X129156793Y-119984665D01*
X128445342Y-120278630D01*
X127900543Y-120822479D01*
X127605337Y-121533416D01*
X127604665Y-122303207D01*
X127898630Y-123014658D01*
X128442479Y-123559457D01*
X128559866Y-123608200D01*
X128875179Y-124254687D01*
X128874665Y-124843207D01*
X129095794Y-125378380D01*
X128491096Y-124772627D01*
X127525215Y-124371558D01*
X126479374Y-124370645D01*
X125512793Y-124770028D01*
X124904171Y-125377589D01*
X125124663Y-124846584D01*
X125125180Y-124253951D01*
X125439835Y-123608814D01*
X125554658Y-123561370D01*
X126099457Y-123017521D01*
X126394663Y-122306584D01*
X126395335Y-121536793D01*
X126101370Y-120825342D01*
X125557521Y-120280543D01*
X124846584Y-119985337D01*
X124587000Y-119985110D01*
X124587000Y-116840000D01*
X124528996Y-116548395D01*
X124363815Y-116301185D01*
X115722843Y-107660213D01*
X120484392Y-107660213D01*
X120553857Y-107902397D01*
X121077302Y-108089144D01*
X121632368Y-108061362D01*
X122016143Y-107902397D01*
X122085608Y-107660213D01*
X121285000Y-106859605D01*
X120484392Y-107660213D01*
X115722843Y-107660213D01*
X114534932Y-106472302D01*
X119875856Y-106472302D01*
X119903638Y-107027368D01*
X120062603Y-107411143D01*
X120304787Y-107480608D01*
X121105395Y-106680000D01*
X121464605Y-106680000D01*
X122265213Y-107480608D01*
X122507397Y-107411143D01*
X122694144Y-106887698D01*
X122666362Y-106332632D01*
X122507397Y-105948857D01*
X122265213Y-105879392D01*
X121464605Y-106680000D01*
X121105395Y-106680000D01*
X120304787Y-105879392D01*
X120062603Y-105948857D01*
X119875856Y-106472302D01*
X114534932Y-106472302D01*
X113762417Y-105699787D01*
X120484392Y-105699787D01*
X121285000Y-106500395D01*
X122085608Y-105699787D01*
X122016143Y-105457603D01*
X121492698Y-105270856D01*
X120937632Y-105298638D01*
X120553857Y-105457603D01*
X120484392Y-105699787D01*
X113762417Y-105699787D01*
X109982000Y-101919370D01*
X109982000Y-101876661D01*
X119887758Y-101876661D01*
X120099990Y-102390303D01*
X120492630Y-102783629D01*
X121005900Y-102996757D01*
X121561661Y-102997242D01*
X122075303Y-102785010D01*
X122468629Y-102392370D01*
X122681757Y-101879100D01*
X122682242Y-101323339D01*
X122470010Y-100809697D01*
X122077370Y-100416371D01*
X121564100Y-100203243D01*
X121008339Y-100202758D01*
X120494697Y-100414990D01*
X120101371Y-100807630D01*
X119888243Y-101320900D01*
X119887758Y-101876661D01*
X109982000Y-101876661D01*
X109982000Y-97757820D01*
X110031800Y-97737243D01*
X110435824Y-97333923D01*
X110489862Y-97203785D01*
X110542757Y-97331800D01*
X110946077Y-97735824D01*
X111473309Y-97954750D01*
X112044187Y-97955248D01*
X112571800Y-97737243D01*
X112975824Y-97333923D01*
X112997384Y-97282000D01*
X136844370Y-97282000D01*
X142113000Y-102550631D01*
X142113000Y-120580445D01*
X141870543Y-120822479D01*
X141575337Y-121533416D01*
X141575106Y-121798328D01*
X141530485Y-121753629D01*
X141076734Y-121565215D01*
X140585421Y-121564786D01*
X140131343Y-121752408D01*
X139783629Y-122099515D01*
X139595215Y-122553266D01*
X139594786Y-123044579D01*
X139782408Y-123498657D01*
X140129515Y-123846371D01*
X140359892Y-123942032D01*
X140305337Y-124073416D01*
X140304665Y-124843207D01*
X140540921Y-125414991D01*
X140236107Y-125414725D01*
X139653343Y-125655519D01*
X139207086Y-126100997D01*
X138965276Y-126683341D01*
X138964725Y-127313893D01*
X139205519Y-127896657D01*
X139650997Y-128342914D01*
X140233341Y-128584724D01*
X140863893Y-128585275D01*
X141104112Y-128486018D01*
X141264267Y-128486158D01*
X141810595Y-128260420D01*
X142113000Y-127958543D01*
X142113000Y-128905000D01*
X142167889Y-129180947D01*
X142147521Y-129160543D01*
X141436584Y-128865337D01*
X140666793Y-128864665D01*
X139955342Y-129158630D01*
X139410543Y-129702479D01*
X139115337Y-130413416D01*
X139114665Y-131183207D01*
X139408630Y-131894658D01*
X139952479Y-132439457D01*
X140663416Y-132734663D01*
X141433207Y-132735335D01*
X142144658Y-132441370D01*
X142689457Y-131897521D01*
X142984663Y-131186584D01*
X142985335Y-130416793D01*
X142757318Y-129864948D01*
X144552820Y-131660450D01*
X144410543Y-131802479D01*
X144115337Y-132513416D01*
X144114665Y-133283207D01*
X144408630Y-133994658D01*
X144952479Y-134539457D01*
X145663416Y-134834663D01*
X146433207Y-134835335D01*
X147144658Y-134541370D01*
X147689457Y-133997521D01*
X147984663Y-133286584D01*
X147985335Y-132516793D01*
X147691370Y-131805342D01*
X147147521Y-131260543D01*
X146961275Y-131183207D01*
X149114665Y-131183207D01*
X149408630Y-131894658D01*
X149952479Y-132439457D01*
X150663416Y-132734663D01*
X151433207Y-132735335D01*
X152144658Y-132441370D01*
X152534821Y-132051887D01*
X154140000Y-132051887D01*
X154140000Y-132108113D01*
X154249233Y-132657264D01*
X154560302Y-133122811D01*
X155025849Y-133433880D01*
X155575000Y-133543113D01*
X156124151Y-133433880D01*
X156589698Y-133122811D01*
X156900767Y-132657264D01*
X157010000Y-132108113D01*
X157010000Y-132051887D01*
X156900767Y-131502736D01*
X156589698Y-131037189D01*
X156124151Y-130726120D01*
X155575000Y-130616887D01*
X155025849Y-130726120D01*
X154560302Y-131037189D01*
X154249233Y-131502736D01*
X154140000Y-132051887D01*
X152534821Y-132051887D01*
X152689457Y-131897521D01*
X152984663Y-131186584D01*
X152985335Y-130416793D01*
X152691370Y-129705342D01*
X152147521Y-129160543D01*
X151436584Y-128865337D01*
X150666793Y-128864665D01*
X149955342Y-129158630D01*
X149410543Y-129702479D01*
X149115337Y-130413416D01*
X149114665Y-131183207D01*
X146961275Y-131183207D01*
X146436584Y-130965337D01*
X146012597Y-130964967D01*
X143637000Y-128589370D01*
X143637000Y-128044245D01*
X143820028Y-128487207D01*
X144558904Y-129227373D01*
X145524785Y-129628442D01*
X146570626Y-129629355D01*
X147537207Y-129229972D01*
X148277373Y-128491096D01*
X148678442Y-127525215D01*
X148679355Y-126479374D01*
X148352809Y-125689071D01*
X148762479Y-126099457D01*
X149473416Y-126394663D01*
X149772340Y-126394924D01*
X149644358Y-126703139D01*
X149643842Y-127294267D01*
X149869580Y-127840595D01*
X150287206Y-128258951D01*
X150833139Y-128485642D01*
X150995065Y-128485783D01*
X151233341Y-128584724D01*
X151863893Y-128585275D01*
X152446657Y-128344481D01*
X152636469Y-128155000D01*
X154452560Y-128155000D01*
X154452560Y-129105000D01*
X154496838Y-129340317D01*
X154635910Y-129556441D01*
X154848110Y-129701431D01*
X155100000Y-129752440D01*
X156050000Y-129752440D01*
X156285317Y-129708162D01*
X156501441Y-129569090D01*
X156646431Y-129356890D01*
X156697440Y-129105000D01*
X156697440Y-128155000D01*
X156653162Y-127919683D01*
X156514090Y-127703559D01*
X156301890Y-127558569D01*
X156050000Y-127507560D01*
X155100000Y-127507560D01*
X154864683Y-127551838D01*
X154648559Y-127690910D01*
X154503569Y-127903110D01*
X154452560Y-128155000D01*
X152636469Y-128155000D01*
X152892914Y-127899003D01*
X153134724Y-127316659D01*
X153135275Y-126686107D01*
X152894481Y-126103343D01*
X152449003Y-125657086D01*
X151866659Y-125415276D01*
X151558634Y-125415007D01*
X151774558Y-124895000D01*
X154452560Y-124895000D01*
X154452560Y-125845000D01*
X154496838Y-126080317D01*
X154635910Y-126296441D01*
X154848110Y-126441431D01*
X155100000Y-126492440D01*
X156050000Y-126492440D01*
X156285317Y-126448162D01*
X156501441Y-126309090D01*
X156646431Y-126096890D01*
X156697440Y-125845000D01*
X156697440Y-124895000D01*
X156653162Y-124659683D01*
X156514090Y-124443559D01*
X156301890Y-124298569D01*
X156050000Y-124247560D01*
X155100000Y-124247560D01*
X154864683Y-124291838D01*
X154648559Y-124430910D01*
X154503569Y-124643110D01*
X154452560Y-124895000D01*
X151774558Y-124895000D01*
X151794663Y-124846584D01*
X151795335Y-124076793D01*
X151739718Y-123942188D01*
X151968657Y-123847592D01*
X152316371Y-123500485D01*
X152504785Y-123046734D01*
X152505214Y-122555421D01*
X152317592Y-122101343D01*
X151970485Y-121753629D01*
X151516734Y-121565215D01*
X151025421Y-121564786D01*
X150571343Y-121752408D01*
X150525106Y-121798564D01*
X150525335Y-121536793D01*
X150353120Y-121120000D01*
X154127560Y-121120000D01*
X154127560Y-122720000D01*
X154171838Y-122955317D01*
X154310910Y-123171441D01*
X154523110Y-123316431D01*
X154775000Y-123367440D01*
X156375000Y-123367440D01*
X156610317Y-123323162D01*
X156826441Y-123184090D01*
X156971431Y-122971890D01*
X157022440Y-122720000D01*
X157022440Y-121120000D01*
X156978162Y-120884683D01*
X156839090Y-120668559D01*
X156626890Y-120523569D01*
X156375000Y-120472560D01*
X154775000Y-120472560D01*
X154539683Y-120516838D01*
X154323559Y-120655910D01*
X154178569Y-120868110D01*
X154127560Y-121120000D01*
X150353120Y-121120000D01*
X150231370Y-120825342D01*
X149687521Y-120280543D01*
X148976584Y-119985337D01*
X148206793Y-119984665D01*
X147495342Y-120278630D01*
X146950543Y-120822479D01*
X146655337Y-121533416D01*
X146654665Y-122303207D01*
X146948630Y-123014658D01*
X147492479Y-123559457D01*
X147609866Y-123608200D01*
X147925179Y-124254687D01*
X147924665Y-124843207D01*
X148145794Y-125378380D01*
X147541096Y-124772627D01*
X146575215Y-124371558D01*
X145529374Y-124370645D01*
X144562793Y-124770028D01*
X143954171Y-125377589D01*
X144174663Y-124846584D01*
X144175180Y-124253951D01*
X144489835Y-123608814D01*
X144604658Y-123561370D01*
X145149457Y-123017521D01*
X145444663Y-122306584D01*
X145445335Y-121536793D01*
X145151370Y-120825342D01*
X144607521Y-120280543D01*
X143896584Y-119985337D01*
X143637000Y-119985110D01*
X143637000Y-102235000D01*
X143578997Y-101943396D01*
X143413816Y-101696185D01*
X137698815Y-95981185D01*
X137698814Y-95981184D01*
X137451605Y-95816004D01*
X137160000Y-95758000D01*
X112997820Y-95758000D01*
X112977243Y-95708200D01*
X112573923Y-95304176D01*
X112046691Y-95085250D01*
X111475813Y-95084752D01*
X110948200Y-95302757D01*
X110544176Y-95706077D01*
X110490138Y-95836215D01*
X110437243Y-95708200D01*
X110033923Y-95304176D01*
X109506691Y-95085250D01*
X108935813Y-95084752D01*
X108408200Y-95302757D01*
X108004176Y-95706077D01*
X107950138Y-95836215D01*
X107897243Y-95708200D01*
X107493923Y-95304176D01*
X106966691Y-95085250D01*
X106395813Y-95084752D01*
X105868200Y-95302757D01*
X105464176Y-95706077D01*
X105410138Y-95836215D01*
X105357243Y-95708200D01*
X104953923Y-95304176D01*
X104426691Y-95085250D01*
X103855813Y-95084752D01*
X103328200Y-95302757D01*
X102924176Y-95706077D01*
X102870138Y-95836215D01*
X102817243Y-95708200D01*
X102413923Y-95304176D01*
X101886691Y-95085250D01*
X101315813Y-95084752D01*
X100788200Y-95302757D01*
X100384176Y-95706077D01*
X100330138Y-95836215D01*
X100277243Y-95708200D01*
X99873923Y-95304176D01*
X99346691Y-95085250D01*
X98775813Y-95084752D01*
X98248200Y-95302757D01*
X97844176Y-95706077D01*
X97790138Y-95836215D01*
X97737243Y-95708200D01*
X97333923Y-95304176D01*
X96806691Y-95085250D01*
X96235813Y-95084752D01*
X95708200Y-95302757D01*
X95304176Y-95706077D01*
X95250138Y-95836215D01*
X95197243Y-95708200D01*
X94793923Y-95304176D01*
X94266691Y-95085250D01*
X93695813Y-95084752D01*
X93168200Y-95302757D01*
X92764176Y-95706077D01*
X92710138Y-95836215D01*
X92657243Y-95708200D01*
X92253923Y-95304176D01*
X91726691Y-95085250D01*
X91155813Y-95084752D01*
X90628200Y-95302757D01*
X90224176Y-95706077D01*
X90170138Y-95836215D01*
X90117243Y-95708200D01*
X89713923Y-95304176D01*
X89186691Y-95085250D01*
X88615813Y-95084752D01*
X88088200Y-95302757D01*
X87684176Y-95706077D01*
X87636552Y-95820768D01*
X87613864Y-95765995D01*
X87367745Y-95691861D01*
X86539605Y-96520000D01*
X87367745Y-97348139D01*
X87613864Y-97274005D01*
X87634805Y-97215746D01*
X87682757Y-97331800D01*
X88086077Y-97735824D01*
X88613309Y-97954750D01*
X89184187Y-97955248D01*
X89711800Y-97737243D01*
X90115824Y-97333923D01*
X90169862Y-97203785D01*
X90222757Y-97331800D01*
X90626077Y-97735824D01*
X91153309Y-97954750D01*
X91724187Y-97955248D01*
X92251800Y-97737243D01*
X92655824Y-97333923D01*
X92709862Y-97203785D01*
X92762757Y-97331800D01*
X93166077Y-97735824D01*
X93693309Y-97954750D01*
X94264187Y-97955248D01*
X94791800Y-97737243D01*
X95195824Y-97333923D01*
X95249862Y-97203785D01*
X95302757Y-97331800D01*
X95706077Y-97735824D01*
X96233309Y-97954750D01*
X96804187Y-97955248D01*
X97331800Y-97737243D01*
X97735824Y-97333923D01*
X97789862Y-97203785D01*
X97842757Y-97331800D01*
X98246077Y-97735824D01*
X98773309Y-97954750D01*
X99344187Y-97955248D01*
X99871800Y-97737243D01*
X100275824Y-97333923D01*
X100329862Y-97203785D01*
X100382757Y-97331800D01*
X100786077Y-97735824D01*
X101313309Y-97954750D01*
X101627346Y-97955024D01*
X100014370Y-99568000D01*
X93980000Y-99568000D01*
X93688395Y-99626004D01*
X93589377Y-99692166D01*
X93441185Y-99791184D01*
X89631185Y-103601185D01*
X89466004Y-103848395D01*
X89408000Y-104140000D01*
X89408000Y-110417712D01*
X89116777Y-110313035D01*
X88546546Y-110340222D01*
X88145995Y-110506136D01*
X88071861Y-110752255D01*
X88900000Y-111580395D01*
X88914142Y-111566252D01*
X89093748Y-111745858D01*
X89079605Y-111760000D01*
X89093748Y-111774143D01*
X88914142Y-111953748D01*
X88900000Y-111939605D01*
X88071861Y-112767745D01*
X88145995Y-113013864D01*
X88683223Y-113206965D01*
X89253454Y-113179778D01*
X89408000Y-113115763D01*
X89408000Y-113349369D01*
X85186185Y-117571185D01*
X85021004Y-117818395D01*
X84963000Y-118110000D01*
X84963000Y-120580445D01*
X84720543Y-120822479D01*
X84425337Y-121533416D01*
X84425106Y-121798328D01*
X84380485Y-121753629D01*
X83926734Y-121565215D01*
X83435421Y-121564786D01*
X82981343Y-121752408D01*
X82633629Y-122099515D01*
X82445215Y-122553266D01*
X82444786Y-123044579D01*
X82632408Y-123498657D01*
X82979515Y-123846371D01*
X83209892Y-123942032D01*
X83155337Y-124073416D01*
X83154665Y-124843207D01*
X83390921Y-125414991D01*
X83086107Y-125414725D01*
X82503343Y-125655519D01*
X82057086Y-126100997D01*
X81815276Y-126683341D01*
X81814725Y-127313893D01*
X74370000Y-127313893D01*
X74370000Y-110960000D01*
X82372560Y-110960000D01*
X82372560Y-112560000D01*
X82416838Y-112795317D01*
X82555910Y-113011441D01*
X82768110Y-113156431D01*
X83020000Y-113207440D01*
X84620000Y-113207440D01*
X84855317Y-113163162D01*
X85071441Y-113024090D01*
X85216431Y-112811890D01*
X85244426Y-112673646D01*
X85546077Y-112975824D01*
X86073309Y-113194750D01*
X86644187Y-113195248D01*
X87171800Y-112977243D01*
X87575824Y-112573923D01*
X87623448Y-112459232D01*
X87646136Y-112514005D01*
X87892255Y-112588139D01*
X88720395Y-111760000D01*
X87892255Y-110931861D01*
X87646136Y-111005995D01*
X87625195Y-111064254D01*
X87577243Y-110948200D01*
X87173923Y-110544176D01*
X86646691Y-110325250D01*
X86075813Y-110324752D01*
X85548200Y-110542757D01*
X85245742Y-110844688D01*
X85223162Y-110724683D01*
X85084090Y-110508559D01*
X84871890Y-110363569D01*
X84620000Y-110312560D01*
X83020000Y-110312560D01*
X82784683Y-110356838D01*
X82568559Y-110495910D01*
X82423569Y-110708110D01*
X82372560Y-110960000D01*
X74370000Y-110960000D01*
X74370000Y-96804187D01*
X82384752Y-96804187D01*
X82602757Y-97331800D01*
X83006077Y-97735824D01*
X83533309Y-97954750D01*
X84104187Y-97955248D01*
X84631800Y-97737243D01*
X84841663Y-97527745D01*
X85531861Y-97527745D01*
X85605995Y-97773864D01*
X86143223Y-97966965D01*
X86713454Y-97939778D01*
X87114005Y-97773864D01*
X87188139Y-97527745D01*
X86360000Y-96699605D01*
X85531861Y-97527745D01*
X84841663Y-97527745D01*
X85035824Y-97333923D01*
X85083448Y-97219232D01*
X85106136Y-97274005D01*
X85352255Y-97348139D01*
X86180395Y-96520000D01*
X85352255Y-95691861D01*
X85106136Y-95765995D01*
X85085195Y-95824254D01*
X85037243Y-95708200D01*
X84841640Y-95512255D01*
X85531861Y-95512255D01*
X86360000Y-96340395D01*
X87188139Y-95512255D01*
X87114005Y-95266136D01*
X86576777Y-95073035D01*
X86006546Y-95100222D01*
X85605995Y-95266136D01*
X85531861Y-95512255D01*
X84841640Y-95512255D01*
X84633923Y-95304176D01*
X84106691Y-95085250D01*
X83535813Y-95084752D01*
X83008200Y-95302757D01*
X82604176Y-95706077D01*
X82385250Y-96233309D01*
X82384752Y-96804187D01*
X74370000Y-96804187D01*
X74370000Y-89194092D01*
X75224092Y-88340000D01*
X163535908Y-88340000D01*
X164390000Y-89194092D01*
X164390000Y-89194092D01*
G37*
X164390000Y-89194092D02*
X164390000Y-140675908D01*
X163535908Y-141530000D01*
X75224092Y-141530000D01*
X74370000Y-140675908D01*
X74370000Y-127313893D01*
X81814725Y-127313893D01*
X82055519Y-127896657D01*
X82500997Y-128342914D01*
X83083341Y-128584724D01*
X83713893Y-128585275D01*
X83954112Y-128486018D01*
X84114267Y-128486158D01*
X84660595Y-128260420D01*
X84963000Y-127958543D01*
X84963000Y-128905000D01*
X85017889Y-129180947D01*
X84997521Y-129160543D01*
X84286584Y-128865337D01*
X83516793Y-128864665D01*
X82805342Y-129158630D01*
X82260543Y-129702479D01*
X81965337Y-130413416D01*
X81964665Y-131183207D01*
X82258630Y-131894658D01*
X82802479Y-132439457D01*
X83513416Y-132734663D01*
X84283207Y-132735335D01*
X84994658Y-132441370D01*
X85539457Y-131897521D01*
X85834663Y-131186584D01*
X85835335Y-130416793D01*
X85607318Y-129864948D01*
X87402820Y-131660450D01*
X87260543Y-131802479D01*
X86965337Y-132513416D01*
X86964665Y-133283207D01*
X87258630Y-133994658D01*
X87802479Y-134539457D01*
X88513416Y-134834663D01*
X89283207Y-134835335D01*
X89994658Y-134541370D01*
X90539457Y-133997521D01*
X90834663Y-133286584D01*
X90835335Y-132516793D01*
X90541370Y-131805342D01*
X89997521Y-131260543D01*
X89811275Y-131183207D01*
X91964665Y-131183207D01*
X92258630Y-131894658D01*
X92802479Y-132439457D01*
X93513416Y-132734663D01*
X94283207Y-132735335D01*
X94994658Y-132441370D01*
X95384821Y-132051887D01*
X96990000Y-132051887D01*
X96990000Y-132108113D01*
X97099233Y-132657264D01*
X97410302Y-133122811D01*
X97875849Y-133433880D01*
X98425000Y-133543113D01*
X98974151Y-133433880D01*
X99439698Y-133122811D01*
X99750767Y-132657264D01*
X99860000Y-132108113D01*
X99860000Y-132051887D01*
X99750767Y-131502736D01*
X99439698Y-131037189D01*
X98974151Y-130726120D01*
X98425000Y-130616887D01*
X97875849Y-130726120D01*
X97410302Y-131037189D01*
X97099233Y-131502736D01*
X96990000Y-132051887D01*
X95384821Y-132051887D01*
X95539457Y-131897521D01*
X95834663Y-131186584D01*
X95835335Y-130416793D01*
X95541370Y-129705342D01*
X94997521Y-129160543D01*
X94286584Y-128865337D01*
X93516793Y-128864665D01*
X92805342Y-129158630D01*
X92260543Y-129702479D01*
X91965337Y-130413416D01*
X91964665Y-131183207D01*
X89811275Y-131183207D01*
X89286584Y-130965337D01*
X88862597Y-130964967D01*
X86487000Y-128589370D01*
X86487000Y-128044245D01*
X86670028Y-128487207D01*
X87408904Y-129227373D01*
X88374785Y-129628442D01*
X89420626Y-129629355D01*
X90387207Y-129229972D01*
X91127373Y-128491096D01*
X91528442Y-127525215D01*
X91529355Y-126479374D01*
X91202809Y-125689071D01*
X91612479Y-126099457D01*
X92323416Y-126394663D01*
X92622340Y-126394924D01*
X92494358Y-126703139D01*
X92493842Y-127294267D01*
X92719580Y-127840595D01*
X93137206Y-128258951D01*
X93683139Y-128485642D01*
X93845065Y-128485783D01*
X94083341Y-128584724D01*
X94713893Y-128585275D01*
X95296657Y-128344481D01*
X95486469Y-128155000D01*
X97302560Y-128155000D01*
X97302560Y-129105000D01*
X97346838Y-129340317D01*
X97485910Y-129556441D01*
X97698110Y-129701431D01*
X97950000Y-129752440D01*
X98900000Y-129752440D01*
X99135317Y-129708162D01*
X99351441Y-129569090D01*
X99496431Y-129356890D01*
X99547440Y-129105000D01*
X99547440Y-128155000D01*
X99503162Y-127919683D01*
X99364090Y-127703559D01*
X99151890Y-127558569D01*
X98900000Y-127507560D01*
X97950000Y-127507560D01*
X97714683Y-127551838D01*
X97498559Y-127690910D01*
X97353569Y-127903110D01*
X97302560Y-128155000D01*
X95486469Y-128155000D01*
X95742914Y-127899003D01*
X95984724Y-127316659D01*
X95985275Y-126686107D01*
X95744481Y-126103343D01*
X95299003Y-125657086D01*
X94716659Y-125415276D01*
X94408634Y-125415007D01*
X94624558Y-124895000D01*
X97302560Y-124895000D01*
X97302560Y-125845000D01*
X97346838Y-126080317D01*
X97485910Y-126296441D01*
X97698110Y-126441431D01*
X97950000Y-126492440D01*
X98900000Y-126492440D01*
X99135317Y-126448162D01*
X99351441Y-126309090D01*
X99496431Y-126096890D01*
X99547440Y-125845000D01*
X99547440Y-124895000D01*
X99503162Y-124659683D01*
X99364090Y-124443559D01*
X99151890Y-124298569D01*
X98900000Y-124247560D01*
X97950000Y-124247560D01*
X97714683Y-124291838D01*
X97498559Y-124430910D01*
X97353569Y-124643110D01*
X97302560Y-124895000D01*
X94624558Y-124895000D01*
X94644663Y-124846584D01*
X94645335Y-124076793D01*
X94589718Y-123942188D01*
X94818657Y-123847592D01*
X95166371Y-123500485D01*
X95354785Y-123046734D01*
X95355214Y-122555421D01*
X95167592Y-122101343D01*
X94820485Y-121753629D01*
X94366734Y-121565215D01*
X93875421Y-121564786D01*
X93421343Y-121752408D01*
X93375106Y-121798564D01*
X93375335Y-121536793D01*
X93203120Y-121120000D01*
X96977560Y-121120000D01*
X96977560Y-122720000D01*
X97021838Y-122955317D01*
X97160910Y-123171441D01*
X97373110Y-123316431D01*
X97625000Y-123367440D01*
X99225000Y-123367440D01*
X99460317Y-123323162D01*
X99676441Y-123184090D01*
X99821431Y-122971890D01*
X99872440Y-122720000D01*
X99872440Y-121120000D01*
X99828162Y-120884683D01*
X99689090Y-120668559D01*
X99476890Y-120523569D01*
X99225000Y-120472560D01*
X97625000Y-120472560D01*
X97389683Y-120516838D01*
X97173559Y-120655910D01*
X97028569Y-120868110D01*
X96977560Y-121120000D01*
X93203120Y-121120000D01*
X93081370Y-120825342D01*
X92537521Y-120280543D01*
X91826584Y-119985337D01*
X91056793Y-119984665D01*
X90345342Y-120278630D01*
X89800543Y-120822479D01*
X89505337Y-121533416D01*
X89504665Y-122303207D01*
X89798630Y-123014658D01*
X90342479Y-123559457D01*
X90459866Y-123608200D01*
X90775179Y-124254687D01*
X90774665Y-124843207D01*
X90995794Y-125378380D01*
X90391096Y-124772627D01*
X89425215Y-124371558D01*
X88379374Y-124370645D01*
X87412793Y-124770028D01*
X86804171Y-125377589D01*
X87024663Y-124846584D01*
X87025180Y-124253951D01*
X87339835Y-123608814D01*
X87454658Y-123561370D01*
X87999457Y-123017521D01*
X88294663Y-122306584D01*
X88295335Y-121536793D01*
X88001370Y-120825342D01*
X87457521Y-120280543D01*
X86746584Y-119985337D01*
X86487000Y-119985110D01*
X86487000Y-118425630D01*
X90708815Y-114203816D01*
X90873996Y-113956605D01*
X90932000Y-113665000D01*
X90932000Y-113102288D01*
X91223223Y-113206965D01*
X91793454Y-113179778D01*
X92194005Y-113013864D01*
X92268139Y-112767745D01*
X91440000Y-111939605D01*
X91425858Y-111953748D01*
X91246253Y-111774143D01*
X91260395Y-111760000D01*
X91246253Y-111745858D01*
X91425858Y-111566252D01*
X91440000Y-111580395D01*
X92268139Y-110752255D01*
X92194005Y-110506136D01*
X91656777Y-110313035D01*
X91086546Y-110340222D01*
X90932000Y-110404237D01*
X90932000Y-104455630D01*
X94295631Y-101092000D01*
X100330000Y-101092000D01*
X100621605Y-101033996D01*
X100868815Y-100868815D01*
X103803545Y-97934086D01*
X103853309Y-97954750D01*
X104424187Y-97955248D01*
X104648000Y-97862770D01*
X104648000Y-110417146D01*
X104426691Y-110325250D01*
X103855813Y-110324752D01*
X103328200Y-110542757D01*
X102924176Y-110946077D01*
X102870138Y-111076215D01*
X102817243Y-110948200D01*
X102413923Y-110544176D01*
X101886691Y-110325250D01*
X101315813Y-110324752D01*
X100788200Y-110542757D01*
X100384176Y-110946077D01*
X100330138Y-111076215D01*
X100277243Y-110948200D01*
X99873923Y-110544176D01*
X99346691Y-110325250D01*
X98775813Y-110324752D01*
X98248200Y-110542757D01*
X97844176Y-110946077D01*
X97790138Y-111076215D01*
X97737243Y-110948200D01*
X97333923Y-110544176D01*
X96806691Y-110325250D01*
X96235813Y-110324752D01*
X95708200Y-110542757D01*
X95304176Y-110946077D01*
X95250138Y-111076215D01*
X95197243Y-110948200D01*
X94793923Y-110544176D01*
X94266691Y-110325250D01*
X93695813Y-110324752D01*
X93168200Y-110542757D01*
X92764176Y-110946077D01*
X92716552Y-111060768D01*
X92693864Y-111005995D01*
X92447745Y-110931861D01*
X91619605Y-111760000D01*
X92447745Y-112588139D01*
X92693864Y-112514005D01*
X92714805Y-112455746D01*
X92762757Y-112571800D01*
X93166077Y-112975824D01*
X93693309Y-113194750D01*
X94264187Y-113195248D01*
X94791800Y-112977243D01*
X95195824Y-112573923D01*
X95249862Y-112443785D01*
X95302757Y-112571800D01*
X95706077Y-112975824D01*
X96233309Y-113194750D01*
X96804187Y-113195248D01*
X97331800Y-112977243D01*
X97735824Y-112573923D01*
X97789862Y-112443785D01*
X97842757Y-112571800D01*
X98246077Y-112975824D01*
X98773309Y-113194750D01*
X99344187Y-113195248D01*
X99871800Y-112977243D01*
X100275824Y-112573923D01*
X100329862Y-112443785D01*
X100382757Y-112571800D01*
X100786077Y-112975824D01*
X101313309Y-113194750D01*
X101884187Y-113195248D01*
X102411800Y-112977243D01*
X102815824Y-112573923D01*
X102869862Y-112443785D01*
X102922757Y-112571800D01*
X103326077Y-112975824D01*
X103853309Y-113194750D01*
X104424187Y-113195248D01*
X104648000Y-113102770D01*
X104648000Y-113984369D01*
X104236185Y-114396185D01*
X104071004Y-114643395D01*
X104013000Y-114935000D01*
X104013000Y-120580445D01*
X103770543Y-120822479D01*
X103475337Y-121533416D01*
X103475106Y-121798328D01*
X103430485Y-121753629D01*
X102976734Y-121565215D01*
X102485421Y-121564786D01*
X102031343Y-121752408D01*
X101683629Y-122099515D01*
X101495215Y-122553266D01*
X101494786Y-123044579D01*
X101682408Y-123498657D01*
X102029515Y-123846371D01*
X102259892Y-123942032D01*
X102205337Y-124073416D01*
X102204665Y-124843207D01*
X102440921Y-125414991D01*
X102136107Y-125414725D01*
X101553343Y-125655519D01*
X101107086Y-126100997D01*
X100865276Y-126683341D01*
X100864725Y-127313893D01*
X101105519Y-127896657D01*
X101550997Y-128342914D01*
X102133341Y-128584724D01*
X102763893Y-128585275D01*
X103004112Y-128486018D01*
X103164267Y-128486158D01*
X103710595Y-128260420D01*
X104013000Y-127958543D01*
X104013000Y-128905000D01*
X104067889Y-129180947D01*
X104047521Y-129160543D01*
X103336584Y-128865337D01*
X102566793Y-128864665D01*
X101855342Y-129158630D01*
X101310543Y-129702479D01*
X101015337Y-130413416D01*
X101014665Y-131183207D01*
X101308630Y-131894658D01*
X101852479Y-132439457D01*
X102563416Y-132734663D01*
X103333207Y-132735335D01*
X104044658Y-132441370D01*
X104589457Y-131897521D01*
X104884663Y-131186584D01*
X104885335Y-130416793D01*
X104657318Y-129864948D01*
X106452820Y-131660450D01*
X106310543Y-131802479D01*
X106015337Y-132513416D01*
X106014665Y-133283207D01*
X106308630Y-133994658D01*
X106852479Y-134539457D01*
X107563416Y-134834663D01*
X108333207Y-134835335D01*
X109044658Y-134541370D01*
X109589457Y-133997521D01*
X109884663Y-133286584D01*
X109885335Y-132516793D01*
X109591370Y-131805342D01*
X109047521Y-131260543D01*
X108861275Y-131183207D01*
X111014665Y-131183207D01*
X111308630Y-131894658D01*
X111852479Y-132439457D01*
X112563416Y-132734663D01*
X113333207Y-132735335D01*
X114044658Y-132441370D01*
X114434821Y-132051887D01*
X116040000Y-132051887D01*
X116040000Y-132108113D01*
X116149233Y-132657264D01*
X116460302Y-133122811D01*
X116925849Y-133433880D01*
X117475000Y-133543113D01*
X118024151Y-133433880D01*
X118489698Y-133122811D01*
X118800767Y-132657264D01*
X118910000Y-132108113D01*
X118910000Y-132051887D01*
X118800767Y-131502736D01*
X118489698Y-131037189D01*
X118024151Y-130726120D01*
X117475000Y-130616887D01*
X116925849Y-130726120D01*
X116460302Y-131037189D01*
X116149233Y-131502736D01*
X116040000Y-132051887D01*
X114434821Y-132051887D01*
X114589457Y-131897521D01*
X114884663Y-131186584D01*
X114885335Y-130416793D01*
X114591370Y-129705342D01*
X114047521Y-129160543D01*
X113336584Y-128865337D01*
X112566793Y-128864665D01*
X111855342Y-129158630D01*
X111310543Y-129702479D01*
X111015337Y-130413416D01*
X111014665Y-131183207D01*
X108861275Y-131183207D01*
X108336584Y-130965337D01*
X107912597Y-130964967D01*
X105537000Y-128589370D01*
X105537000Y-128044245D01*
X105720028Y-128487207D01*
X106458904Y-129227373D01*
X107424785Y-129628442D01*
X108470626Y-129629355D01*
X109437207Y-129229972D01*
X110177373Y-128491096D01*
X110578442Y-127525215D01*
X110579355Y-126479374D01*
X110252809Y-125689071D01*
X110662479Y-126099457D01*
X111373416Y-126394663D01*
X111672340Y-126394924D01*
X111544358Y-126703139D01*
X111543842Y-127294267D01*
X111769580Y-127840595D01*
X112187206Y-128258951D01*
X112733139Y-128485642D01*
X112895065Y-128485783D01*
X113133341Y-128584724D01*
X113763893Y-128585275D01*
X114346657Y-128344481D01*
X114536469Y-128155000D01*
X116352560Y-128155000D01*
X116352560Y-129105000D01*
X116396838Y-129340317D01*
X116535910Y-129556441D01*
X116748110Y-129701431D01*
X117000000Y-129752440D01*
X117950000Y-129752440D01*
X118185317Y-129708162D01*
X118401441Y-129569090D01*
X118546431Y-129356890D01*
X118597440Y-129105000D01*
X118597440Y-128155000D01*
X118553162Y-127919683D01*
X118414090Y-127703559D01*
X118201890Y-127558569D01*
X117950000Y-127507560D01*
X117000000Y-127507560D01*
X116764683Y-127551838D01*
X116548559Y-127690910D01*
X116403569Y-127903110D01*
X116352560Y-128155000D01*
X114536469Y-128155000D01*
X114792914Y-127899003D01*
X115034724Y-127316659D01*
X115035275Y-126686107D01*
X114794481Y-126103343D01*
X114349003Y-125657086D01*
X113766659Y-125415276D01*
X113458634Y-125415007D01*
X113674558Y-124895000D01*
X116352560Y-124895000D01*
X116352560Y-125845000D01*
X116396838Y-126080317D01*
X116535910Y-126296441D01*
X116748110Y-126441431D01*
X117000000Y-126492440D01*
X117950000Y-126492440D01*
X118185317Y-126448162D01*
X118401441Y-126309090D01*
X118546431Y-126096890D01*
X118597440Y-125845000D01*
X118597440Y-124895000D01*
X118553162Y-124659683D01*
X118414090Y-124443559D01*
X118201890Y-124298569D01*
X117950000Y-124247560D01*
X117000000Y-124247560D01*
X116764683Y-124291838D01*
X116548559Y-124430910D01*
X116403569Y-124643110D01*
X116352560Y-124895000D01*
X113674558Y-124895000D01*
X113694663Y-124846584D01*
X113695335Y-124076793D01*
X113639718Y-123942188D01*
X113868657Y-123847592D01*
X114216371Y-123500485D01*
X114404785Y-123046734D01*
X114405214Y-122555421D01*
X114217592Y-122101343D01*
X113870485Y-121753629D01*
X113416734Y-121565215D01*
X112925421Y-121564786D01*
X112471343Y-121752408D01*
X112425106Y-121798564D01*
X112425335Y-121536793D01*
X112253120Y-121120000D01*
X116027560Y-121120000D01*
X116027560Y-122720000D01*
X116071838Y-122955317D01*
X116210910Y-123171441D01*
X116423110Y-123316431D01*
X116675000Y-123367440D01*
X118275000Y-123367440D01*
X118510317Y-123323162D01*
X118726441Y-123184090D01*
X118871431Y-122971890D01*
X118922440Y-122720000D01*
X118922440Y-121120000D01*
X118878162Y-120884683D01*
X118739090Y-120668559D01*
X118526890Y-120523569D01*
X118275000Y-120472560D01*
X116675000Y-120472560D01*
X116439683Y-120516838D01*
X116223559Y-120655910D01*
X116078569Y-120868110D01*
X116027560Y-121120000D01*
X112253120Y-121120000D01*
X112131370Y-120825342D01*
X111587521Y-120280543D01*
X110876584Y-119985337D01*
X110106793Y-119984665D01*
X109395342Y-120278630D01*
X108850543Y-120822479D01*
X108555337Y-121533416D01*
X108554665Y-122303207D01*
X108848630Y-123014658D01*
X109392479Y-123559457D01*
X109509866Y-123608200D01*
X109825179Y-124254687D01*
X109824665Y-124843207D01*
X110045794Y-125378380D01*
X109441096Y-124772627D01*
X108475215Y-124371558D01*
X107429374Y-124370645D01*
X106462793Y-124770028D01*
X105854171Y-125377589D01*
X106074663Y-124846584D01*
X106075180Y-124253951D01*
X106389835Y-123608814D01*
X106504658Y-123561370D01*
X107049457Y-123017521D01*
X107344663Y-122306584D01*
X107345335Y-121536793D01*
X107051370Y-120825342D01*
X106507521Y-120280543D01*
X105796584Y-119985337D01*
X105537000Y-119985110D01*
X105537000Y-115250630D01*
X105948816Y-114838815D01*
X106079391Y-114643395D01*
X106113996Y-114591605D01*
X106172000Y-114300000D01*
X106172000Y-113102854D01*
X106393309Y-113194750D01*
X106964187Y-113195248D01*
X107491800Y-112977243D01*
X107895824Y-112573923D01*
X107949862Y-112443785D01*
X108002757Y-112571800D01*
X108406077Y-112975824D01*
X108933309Y-113194750D01*
X109504187Y-113195248D01*
X110031800Y-112977243D01*
X110435824Y-112573923D01*
X110489862Y-112443785D01*
X110542757Y-112571800D01*
X110946077Y-112975824D01*
X111473309Y-113194750D01*
X112044187Y-113195248D01*
X112571800Y-112977243D01*
X112975824Y-112573923D01*
X113194750Y-112046691D01*
X113195248Y-111475813D01*
X112977243Y-110948200D01*
X112573923Y-110544176D01*
X112046691Y-110325250D01*
X111475813Y-110324752D01*
X110948200Y-110542757D01*
X110544176Y-110946077D01*
X110490138Y-111076215D01*
X110437243Y-110948200D01*
X110033923Y-110544176D01*
X109506691Y-110325250D01*
X108935813Y-110324752D01*
X108408200Y-110542757D01*
X108004176Y-110946077D01*
X107950138Y-111076215D01*
X107897243Y-110948200D01*
X107493923Y-110544176D01*
X106966691Y-110325250D01*
X106395813Y-110324752D01*
X106172000Y-110417230D01*
X106172000Y-98105630D01*
X106343544Y-97934086D01*
X106393309Y-97954750D01*
X106964187Y-97955248D01*
X107491800Y-97737243D01*
X107895824Y-97333923D01*
X107949862Y-97203785D01*
X108002757Y-97331800D01*
X108406077Y-97735824D01*
X108458000Y-97757384D01*
X108458000Y-102235000D01*
X108516004Y-102526605D01*
X108681185Y-102773815D01*
X123063000Y-117155630D01*
X123063000Y-120580445D01*
X122820543Y-120822479D01*
X122525337Y-121533416D01*
X122525106Y-121798328D01*
X122480485Y-121753629D01*
X122026734Y-121565215D01*
X121535421Y-121564786D01*
X121081343Y-121752408D01*
X120733629Y-122099515D01*
X120545215Y-122553266D01*
X120544786Y-123044579D01*
X120732408Y-123498657D01*
X121079515Y-123846371D01*
X121309892Y-123942032D01*
X121255337Y-124073416D01*
X121254665Y-124843207D01*
X121490921Y-125414991D01*
X121186107Y-125414725D01*
X120603343Y-125655519D01*
X120157086Y-126100997D01*
X119915276Y-126683341D01*
X119914725Y-127313893D01*
X120155519Y-127896657D01*
X120600997Y-128342914D01*
X121183341Y-128584724D01*
X121813893Y-128585275D01*
X122054112Y-128486018D01*
X122214267Y-128486158D01*
X122760595Y-128260420D01*
X123063000Y-127958543D01*
X123063000Y-128905000D01*
X123117889Y-129180947D01*
X123097521Y-129160543D01*
X122386584Y-128865337D01*
X121616793Y-128864665D01*
X120905342Y-129158630D01*
X120360543Y-129702479D01*
X120065337Y-130413416D01*
X120064665Y-131183207D01*
X120358630Y-131894658D01*
X120902479Y-132439457D01*
X121613416Y-132734663D01*
X122383207Y-132735335D01*
X123094658Y-132441370D01*
X123639457Y-131897521D01*
X123934663Y-131186584D01*
X123935335Y-130416793D01*
X123707318Y-129864948D01*
X125502820Y-131660450D01*
X125360543Y-131802479D01*
X125065337Y-132513416D01*
X125064665Y-133283207D01*
X125358630Y-133994658D01*
X125902479Y-134539457D01*
X126613416Y-134834663D01*
X127383207Y-134835335D01*
X128094658Y-134541370D01*
X128639457Y-133997521D01*
X128934663Y-133286584D01*
X128935335Y-132516793D01*
X128641370Y-131805342D01*
X128097521Y-131260543D01*
X127911275Y-131183207D01*
X130064665Y-131183207D01*
X130358630Y-131894658D01*
X130902479Y-132439457D01*
X131613416Y-132734663D01*
X132383207Y-132735335D01*
X133094658Y-132441370D01*
X133484821Y-132051887D01*
X135090000Y-132051887D01*
X135090000Y-132108113D01*
X135199233Y-132657264D01*
X135510302Y-133122811D01*
X135975849Y-133433880D01*
X136525000Y-133543113D01*
X137074151Y-133433880D01*
X137539698Y-133122811D01*
X137850767Y-132657264D01*
X137960000Y-132108113D01*
X137960000Y-132051887D01*
X137850767Y-131502736D01*
X137539698Y-131037189D01*
X137074151Y-130726120D01*
X136525000Y-130616887D01*
X135975849Y-130726120D01*
X135510302Y-131037189D01*
X135199233Y-131502736D01*
X135090000Y-132051887D01*
X133484821Y-132051887D01*
X133639457Y-131897521D01*
X133934663Y-131186584D01*
X133935335Y-130416793D01*
X133641370Y-129705342D01*
X133097521Y-129160543D01*
X132386584Y-128865337D01*
X131616793Y-128864665D01*
X130905342Y-129158630D01*
X130360543Y-129702479D01*
X130065337Y-130413416D01*
X130064665Y-131183207D01*
X127911275Y-131183207D01*
X127386584Y-130965337D01*
X126962597Y-130964967D01*
X124587000Y-128589370D01*
X124587000Y-128044245D01*
X124770028Y-128487207D01*
X125508904Y-129227373D01*
X126474785Y-129628442D01*
X127520626Y-129629355D01*
X128487207Y-129229972D01*
X129227373Y-128491096D01*
X129628442Y-127525215D01*
X129629355Y-126479374D01*
X129302809Y-125689071D01*
X129712479Y-126099457D01*
X130423416Y-126394663D01*
X130722340Y-126394924D01*
X130594358Y-126703139D01*
X130593842Y-127294267D01*
X130819580Y-127840595D01*
X131237206Y-128258951D01*
X131783139Y-128485642D01*
X131945065Y-128485783D01*
X132183341Y-128584724D01*
X132813893Y-128585275D01*
X133396657Y-128344481D01*
X133586469Y-128155000D01*
X135402560Y-128155000D01*
X135402560Y-129105000D01*
X135446838Y-129340317D01*
X135585910Y-129556441D01*
X135798110Y-129701431D01*
X136050000Y-129752440D01*
X137000000Y-129752440D01*
X137235317Y-129708162D01*
X137451441Y-129569090D01*
X137596431Y-129356890D01*
X137647440Y-129105000D01*
X137647440Y-128155000D01*
X137603162Y-127919683D01*
X137464090Y-127703559D01*
X137251890Y-127558569D01*
X137000000Y-127507560D01*
X136050000Y-127507560D01*
X135814683Y-127551838D01*
X135598559Y-127690910D01*
X135453569Y-127903110D01*
X135402560Y-128155000D01*
X133586469Y-128155000D01*
X133842914Y-127899003D01*
X134084724Y-127316659D01*
X134085275Y-126686107D01*
X133844481Y-126103343D01*
X133399003Y-125657086D01*
X132816659Y-125415276D01*
X132508634Y-125415007D01*
X132724558Y-124895000D01*
X135402560Y-124895000D01*
X135402560Y-125845000D01*
X135446838Y-126080317D01*
X135585910Y-126296441D01*
X135798110Y-126441431D01*
X136050000Y-126492440D01*
X137000000Y-126492440D01*
X137235317Y-126448162D01*
X137451441Y-126309090D01*
X137596431Y-126096890D01*
X137647440Y-125845000D01*
X137647440Y-124895000D01*
X137603162Y-124659683D01*
X137464090Y-124443559D01*
X137251890Y-124298569D01*
X137000000Y-124247560D01*
X136050000Y-124247560D01*
X135814683Y-124291838D01*
X135598559Y-124430910D01*
X135453569Y-124643110D01*
X135402560Y-124895000D01*
X132724558Y-124895000D01*
X132744663Y-124846584D01*
X132745335Y-124076793D01*
X132689718Y-123942188D01*
X132918657Y-123847592D01*
X133266371Y-123500485D01*
X133454785Y-123046734D01*
X133455214Y-122555421D01*
X133267592Y-122101343D01*
X132920485Y-121753629D01*
X132466734Y-121565215D01*
X131975421Y-121564786D01*
X131521343Y-121752408D01*
X131475106Y-121798564D01*
X131475335Y-121536793D01*
X131303120Y-121120000D01*
X135077560Y-121120000D01*
X135077560Y-122720000D01*
X135121838Y-122955317D01*
X135260910Y-123171441D01*
X135473110Y-123316431D01*
X135725000Y-123367440D01*
X137325000Y-123367440D01*
X137560317Y-123323162D01*
X137776441Y-123184090D01*
X137921431Y-122971890D01*
X137972440Y-122720000D01*
X137972440Y-121120000D01*
X137928162Y-120884683D01*
X137789090Y-120668559D01*
X137576890Y-120523569D01*
X137325000Y-120472560D01*
X135725000Y-120472560D01*
X135489683Y-120516838D01*
X135273559Y-120655910D01*
X135128569Y-120868110D01*
X135077560Y-121120000D01*
X131303120Y-121120000D01*
X131181370Y-120825342D01*
X130637521Y-120280543D01*
X129926584Y-119985337D01*
X129156793Y-119984665D01*
X128445342Y-120278630D01*
X127900543Y-120822479D01*
X127605337Y-121533416D01*
X127604665Y-122303207D01*
X127898630Y-123014658D01*
X128442479Y-123559457D01*
X128559866Y-123608200D01*
X128875179Y-124254687D01*
X128874665Y-124843207D01*
X129095794Y-125378380D01*
X128491096Y-124772627D01*
X127525215Y-124371558D01*
X126479374Y-124370645D01*
X125512793Y-124770028D01*
X124904171Y-125377589D01*
X125124663Y-124846584D01*
X125125180Y-124253951D01*
X125439835Y-123608814D01*
X125554658Y-123561370D01*
X126099457Y-123017521D01*
X126394663Y-122306584D01*
X126395335Y-121536793D01*
X126101370Y-120825342D01*
X125557521Y-120280543D01*
X124846584Y-119985337D01*
X124587000Y-119985110D01*
X124587000Y-116840000D01*
X124528996Y-116548395D01*
X124363815Y-116301185D01*
X115722843Y-107660213D01*
X120484392Y-107660213D01*
X120553857Y-107902397D01*
X121077302Y-108089144D01*
X121632368Y-108061362D01*
X122016143Y-107902397D01*
X122085608Y-107660213D01*
X121285000Y-106859605D01*
X120484392Y-107660213D01*
X115722843Y-107660213D01*
X114534932Y-106472302D01*
X119875856Y-106472302D01*
X119903638Y-107027368D01*
X120062603Y-107411143D01*
X120304787Y-107480608D01*
X121105395Y-106680000D01*
X121464605Y-106680000D01*
X122265213Y-107480608D01*
X122507397Y-107411143D01*
X122694144Y-106887698D01*
X122666362Y-106332632D01*
X122507397Y-105948857D01*
X122265213Y-105879392D01*
X121464605Y-106680000D01*
X121105395Y-106680000D01*
X120304787Y-105879392D01*
X120062603Y-105948857D01*
X119875856Y-106472302D01*
X114534932Y-106472302D01*
X113762417Y-105699787D01*
X120484392Y-105699787D01*
X121285000Y-106500395D01*
X122085608Y-105699787D01*
X122016143Y-105457603D01*
X121492698Y-105270856D01*
X120937632Y-105298638D01*
X120553857Y-105457603D01*
X120484392Y-105699787D01*
X113762417Y-105699787D01*
X109982000Y-101919370D01*
X109982000Y-101876661D01*
X119887758Y-101876661D01*
X120099990Y-102390303D01*
X120492630Y-102783629D01*
X121005900Y-102996757D01*
X121561661Y-102997242D01*
X122075303Y-102785010D01*
X122468629Y-102392370D01*
X122681757Y-101879100D01*
X122682242Y-101323339D01*
X122470010Y-100809697D01*
X122077370Y-100416371D01*
X121564100Y-100203243D01*
X121008339Y-100202758D01*
X120494697Y-100414990D01*
X120101371Y-100807630D01*
X119888243Y-101320900D01*
X119887758Y-101876661D01*
X109982000Y-101876661D01*
X109982000Y-97757820D01*
X110031800Y-97737243D01*
X110435824Y-97333923D01*
X110489862Y-97203785D01*
X110542757Y-97331800D01*
X110946077Y-97735824D01*
X111473309Y-97954750D01*
X112044187Y-97955248D01*
X112571800Y-97737243D01*
X112975824Y-97333923D01*
X112997384Y-97282000D01*
X136844370Y-97282000D01*
X142113000Y-102550631D01*
X142113000Y-120580445D01*
X141870543Y-120822479D01*
X141575337Y-121533416D01*
X141575106Y-121798328D01*
X141530485Y-121753629D01*
X141076734Y-121565215D01*
X140585421Y-121564786D01*
X140131343Y-121752408D01*
X139783629Y-122099515D01*
X139595215Y-122553266D01*
X139594786Y-123044579D01*
X139782408Y-123498657D01*
X140129515Y-123846371D01*
X140359892Y-123942032D01*
X140305337Y-124073416D01*
X140304665Y-124843207D01*
X140540921Y-125414991D01*
X140236107Y-125414725D01*
X139653343Y-125655519D01*
X139207086Y-126100997D01*
X138965276Y-126683341D01*
X138964725Y-127313893D01*
X139205519Y-127896657D01*
X139650997Y-128342914D01*
X140233341Y-128584724D01*
X140863893Y-128585275D01*
X141104112Y-128486018D01*
X141264267Y-128486158D01*
X141810595Y-128260420D01*
X142113000Y-127958543D01*
X142113000Y-128905000D01*
X142167889Y-129180947D01*
X142147521Y-129160543D01*
X141436584Y-128865337D01*
X140666793Y-128864665D01*
X139955342Y-129158630D01*
X139410543Y-129702479D01*
X139115337Y-130413416D01*
X139114665Y-131183207D01*
X139408630Y-131894658D01*
X139952479Y-132439457D01*
X140663416Y-132734663D01*
X141433207Y-132735335D01*
X142144658Y-132441370D01*
X142689457Y-131897521D01*
X142984663Y-131186584D01*
X142985335Y-130416793D01*
X142757318Y-129864948D01*
X144552820Y-131660450D01*
X144410543Y-131802479D01*
X144115337Y-132513416D01*
X144114665Y-133283207D01*
X144408630Y-133994658D01*
X144952479Y-134539457D01*
X145663416Y-134834663D01*
X146433207Y-134835335D01*
X147144658Y-134541370D01*
X147689457Y-133997521D01*
X147984663Y-133286584D01*
X147985335Y-132516793D01*
X147691370Y-131805342D01*
X147147521Y-131260543D01*
X146961275Y-131183207D01*
X149114665Y-131183207D01*
X149408630Y-131894658D01*
X149952479Y-132439457D01*
X150663416Y-132734663D01*
X151433207Y-132735335D01*
X152144658Y-132441370D01*
X152534821Y-132051887D01*
X154140000Y-132051887D01*
X154140000Y-132108113D01*
X154249233Y-132657264D01*
X154560302Y-133122811D01*
X155025849Y-133433880D01*
X155575000Y-133543113D01*
X156124151Y-133433880D01*
X156589698Y-133122811D01*
X156900767Y-132657264D01*
X157010000Y-132108113D01*
X157010000Y-132051887D01*
X156900767Y-131502736D01*
X156589698Y-131037189D01*
X156124151Y-130726120D01*
X155575000Y-130616887D01*
X155025849Y-130726120D01*
X154560302Y-131037189D01*
X154249233Y-131502736D01*
X154140000Y-132051887D01*
X152534821Y-132051887D01*
X152689457Y-131897521D01*
X152984663Y-131186584D01*
X152985335Y-130416793D01*
X152691370Y-129705342D01*
X152147521Y-129160543D01*
X151436584Y-128865337D01*
X150666793Y-128864665D01*
X149955342Y-129158630D01*
X149410543Y-129702479D01*
X149115337Y-130413416D01*
X149114665Y-131183207D01*
X146961275Y-131183207D01*
X146436584Y-130965337D01*
X146012597Y-130964967D01*
X143637000Y-128589370D01*
X143637000Y-128044245D01*
X143820028Y-128487207D01*
X144558904Y-129227373D01*
X145524785Y-129628442D01*
X146570626Y-129629355D01*
X147537207Y-129229972D01*
X148277373Y-128491096D01*
X148678442Y-127525215D01*
X148679355Y-126479374D01*
X148352809Y-125689071D01*
X148762479Y-126099457D01*
X149473416Y-126394663D01*
X149772340Y-126394924D01*
X149644358Y-126703139D01*
X149643842Y-127294267D01*
X149869580Y-127840595D01*
X150287206Y-128258951D01*
X150833139Y-128485642D01*
X150995065Y-128485783D01*
X151233341Y-128584724D01*
X151863893Y-128585275D01*
X152446657Y-128344481D01*
X152636469Y-128155000D01*
X154452560Y-128155000D01*
X154452560Y-129105000D01*
X154496838Y-129340317D01*
X154635910Y-129556441D01*
X154848110Y-129701431D01*
X155100000Y-129752440D01*
X156050000Y-129752440D01*
X156285317Y-129708162D01*
X156501441Y-129569090D01*
X156646431Y-129356890D01*
X156697440Y-129105000D01*
X156697440Y-128155000D01*
X156653162Y-127919683D01*
X156514090Y-127703559D01*
X156301890Y-127558569D01*
X156050000Y-127507560D01*
X155100000Y-127507560D01*
X154864683Y-127551838D01*
X154648559Y-127690910D01*
X154503569Y-127903110D01*
X154452560Y-128155000D01*
X152636469Y-128155000D01*
X152892914Y-127899003D01*
X153134724Y-127316659D01*
X153135275Y-126686107D01*
X152894481Y-126103343D01*
X152449003Y-125657086D01*
X151866659Y-125415276D01*
X151558634Y-125415007D01*
X151774558Y-124895000D01*
X154452560Y-124895000D01*
X154452560Y-125845000D01*
X154496838Y-126080317D01*
X154635910Y-126296441D01*
X154848110Y-126441431D01*
X155100000Y-126492440D01*
X156050000Y-126492440D01*
X156285317Y-126448162D01*
X156501441Y-126309090D01*
X156646431Y-126096890D01*
X156697440Y-125845000D01*
X156697440Y-124895000D01*
X156653162Y-124659683D01*
X156514090Y-124443559D01*
X156301890Y-124298569D01*
X156050000Y-124247560D01*
X155100000Y-124247560D01*
X154864683Y-124291838D01*
X154648559Y-124430910D01*
X154503569Y-124643110D01*
X154452560Y-124895000D01*
X151774558Y-124895000D01*
X151794663Y-124846584D01*
X151795335Y-124076793D01*
X151739718Y-123942188D01*
X151968657Y-123847592D01*
X152316371Y-123500485D01*
X152504785Y-123046734D01*
X152505214Y-122555421D01*
X152317592Y-122101343D01*
X151970485Y-121753629D01*
X151516734Y-121565215D01*
X151025421Y-121564786D01*
X150571343Y-121752408D01*
X150525106Y-121798564D01*
X150525335Y-121536793D01*
X150353120Y-121120000D01*
X154127560Y-121120000D01*
X154127560Y-122720000D01*
X154171838Y-122955317D01*
X154310910Y-123171441D01*
X154523110Y-123316431D01*
X154775000Y-123367440D01*
X156375000Y-123367440D01*
X156610317Y-123323162D01*
X156826441Y-123184090D01*
X156971431Y-122971890D01*
X157022440Y-122720000D01*
X157022440Y-121120000D01*
X156978162Y-120884683D01*
X156839090Y-120668559D01*
X156626890Y-120523569D01*
X156375000Y-120472560D01*
X154775000Y-120472560D01*
X154539683Y-120516838D01*
X154323559Y-120655910D01*
X154178569Y-120868110D01*
X154127560Y-121120000D01*
X150353120Y-121120000D01*
X150231370Y-120825342D01*
X149687521Y-120280543D01*
X148976584Y-119985337D01*
X148206793Y-119984665D01*
X147495342Y-120278630D01*
X146950543Y-120822479D01*
X146655337Y-121533416D01*
X146654665Y-122303207D01*
X146948630Y-123014658D01*
X147492479Y-123559457D01*
X147609866Y-123608200D01*
X147925179Y-124254687D01*
X147924665Y-124843207D01*
X148145794Y-125378380D01*
X147541096Y-124772627D01*
X146575215Y-124371558D01*
X145529374Y-124370645D01*
X144562793Y-124770028D01*
X143954171Y-125377589D01*
X144174663Y-124846584D01*
X144175180Y-124253951D01*
X144489835Y-123608814D01*
X144604658Y-123561370D01*
X145149457Y-123017521D01*
X145444663Y-122306584D01*
X145445335Y-121536793D01*
X145151370Y-120825342D01*
X144607521Y-120280543D01*
X143896584Y-119985337D01*
X143637000Y-119985110D01*
X143637000Y-102235000D01*
X143578997Y-101943396D01*
X143413816Y-101696185D01*
X137698815Y-95981185D01*
X137698814Y-95981184D01*
X137451605Y-95816004D01*
X137160000Y-95758000D01*
X112997820Y-95758000D01*
X112977243Y-95708200D01*
X112573923Y-95304176D01*
X112046691Y-95085250D01*
X111475813Y-95084752D01*
X110948200Y-95302757D01*
X110544176Y-95706077D01*
X110490138Y-95836215D01*
X110437243Y-95708200D01*
X110033923Y-95304176D01*
X109506691Y-95085250D01*
X108935813Y-95084752D01*
X108408200Y-95302757D01*
X108004176Y-95706077D01*
X107950138Y-95836215D01*
X107897243Y-95708200D01*
X107493923Y-95304176D01*
X106966691Y-95085250D01*
X106395813Y-95084752D01*
X105868200Y-95302757D01*
X105464176Y-95706077D01*
X105410138Y-95836215D01*
X105357243Y-95708200D01*
X104953923Y-95304176D01*
X104426691Y-95085250D01*
X103855813Y-95084752D01*
X103328200Y-95302757D01*
X102924176Y-95706077D01*
X102870138Y-95836215D01*
X102817243Y-95708200D01*
X102413923Y-95304176D01*
X101886691Y-95085250D01*
X101315813Y-95084752D01*
X100788200Y-95302757D01*
X100384176Y-95706077D01*
X100330138Y-95836215D01*
X100277243Y-95708200D01*
X99873923Y-95304176D01*
X99346691Y-95085250D01*
X98775813Y-95084752D01*
X98248200Y-95302757D01*
X97844176Y-95706077D01*
X97790138Y-95836215D01*
X97737243Y-95708200D01*
X97333923Y-95304176D01*
X96806691Y-95085250D01*
X96235813Y-95084752D01*
X95708200Y-95302757D01*
X95304176Y-95706077D01*
X95250138Y-95836215D01*
X95197243Y-95708200D01*
X94793923Y-95304176D01*
X94266691Y-95085250D01*
X93695813Y-95084752D01*
X93168200Y-95302757D01*
X92764176Y-95706077D01*
X92710138Y-95836215D01*
X92657243Y-95708200D01*
X92253923Y-95304176D01*
X91726691Y-95085250D01*
X91155813Y-95084752D01*
X90628200Y-95302757D01*
X90224176Y-95706077D01*
X90170138Y-95836215D01*
X90117243Y-95708200D01*
X89713923Y-95304176D01*
X89186691Y-95085250D01*
X88615813Y-95084752D01*
X88088200Y-95302757D01*
X87684176Y-95706077D01*
X87636552Y-95820768D01*
X87613864Y-95765995D01*
X87367745Y-95691861D01*
X86539605Y-96520000D01*
X87367745Y-97348139D01*
X87613864Y-97274005D01*
X87634805Y-97215746D01*
X87682757Y-97331800D01*
X88086077Y-97735824D01*
X88613309Y-97954750D01*
X89184187Y-97955248D01*
X89711800Y-97737243D01*
X90115824Y-97333923D01*
X90169862Y-97203785D01*
X90222757Y-97331800D01*
X90626077Y-97735824D01*
X91153309Y-97954750D01*
X91724187Y-97955248D01*
X92251800Y-97737243D01*
X92655824Y-97333923D01*
X92709862Y-97203785D01*
X92762757Y-97331800D01*
X93166077Y-97735824D01*
X93693309Y-97954750D01*
X94264187Y-97955248D01*
X94791800Y-97737243D01*
X95195824Y-97333923D01*
X95249862Y-97203785D01*
X95302757Y-97331800D01*
X95706077Y-97735824D01*
X96233309Y-97954750D01*
X96804187Y-97955248D01*
X97331800Y-97737243D01*
X97735824Y-97333923D01*
X97789862Y-97203785D01*
X97842757Y-97331800D01*
X98246077Y-97735824D01*
X98773309Y-97954750D01*
X99344187Y-97955248D01*
X99871800Y-97737243D01*
X100275824Y-97333923D01*
X100329862Y-97203785D01*
X100382757Y-97331800D01*
X100786077Y-97735824D01*
X101313309Y-97954750D01*
X101627346Y-97955024D01*
X100014370Y-99568000D01*
X93980000Y-99568000D01*
X93688395Y-99626004D01*
X93589377Y-99692166D01*
X93441185Y-99791184D01*
X89631185Y-103601185D01*
X89466004Y-103848395D01*
X89408000Y-104140000D01*
X89408000Y-110417712D01*
X89116777Y-110313035D01*
X88546546Y-110340222D01*
X88145995Y-110506136D01*
X88071861Y-110752255D01*
X88900000Y-111580395D01*
X88914142Y-111566252D01*
X89093748Y-111745858D01*
X89079605Y-111760000D01*
X89093748Y-111774143D01*
X88914142Y-111953748D01*
X88900000Y-111939605D01*
X88071861Y-112767745D01*
X88145995Y-113013864D01*
X88683223Y-113206965D01*
X89253454Y-113179778D01*
X89408000Y-113115763D01*
X89408000Y-113349369D01*
X85186185Y-117571185D01*
X85021004Y-117818395D01*
X84963000Y-118110000D01*
X84963000Y-120580445D01*
X84720543Y-120822479D01*
X84425337Y-121533416D01*
X84425106Y-121798328D01*
X84380485Y-121753629D01*
X83926734Y-121565215D01*
X83435421Y-121564786D01*
X82981343Y-121752408D01*
X82633629Y-122099515D01*
X82445215Y-122553266D01*
X82444786Y-123044579D01*
X82632408Y-123498657D01*
X82979515Y-123846371D01*
X83209892Y-123942032D01*
X83155337Y-124073416D01*
X83154665Y-124843207D01*
X83390921Y-125414991D01*
X83086107Y-125414725D01*
X82503343Y-125655519D01*
X82057086Y-126100997D01*
X81815276Y-126683341D01*
X81814725Y-127313893D01*
X74370000Y-127313893D01*
X74370000Y-110960000D01*
X82372560Y-110960000D01*
X82372560Y-112560000D01*
X82416838Y-112795317D01*
X82555910Y-113011441D01*
X82768110Y-113156431D01*
X83020000Y-113207440D01*
X84620000Y-113207440D01*
X84855317Y-113163162D01*
X85071441Y-113024090D01*
X85216431Y-112811890D01*
X85244426Y-112673646D01*
X85546077Y-112975824D01*
X86073309Y-113194750D01*
X86644187Y-113195248D01*
X87171800Y-112977243D01*
X87575824Y-112573923D01*
X87623448Y-112459232D01*
X87646136Y-112514005D01*
X87892255Y-112588139D01*
X88720395Y-111760000D01*
X87892255Y-110931861D01*
X87646136Y-111005995D01*
X87625195Y-111064254D01*
X87577243Y-110948200D01*
X87173923Y-110544176D01*
X86646691Y-110325250D01*
X86075813Y-110324752D01*
X85548200Y-110542757D01*
X85245742Y-110844688D01*
X85223162Y-110724683D01*
X85084090Y-110508559D01*
X84871890Y-110363569D01*
X84620000Y-110312560D01*
X83020000Y-110312560D01*
X82784683Y-110356838D01*
X82568559Y-110495910D01*
X82423569Y-110708110D01*
X82372560Y-110960000D01*
X74370000Y-110960000D01*
X74370000Y-96804187D01*
X82384752Y-96804187D01*
X82602757Y-97331800D01*
X83006077Y-97735824D01*
X83533309Y-97954750D01*
X84104187Y-97955248D01*
X84631800Y-97737243D01*
X84841663Y-97527745D01*
X85531861Y-97527745D01*
X85605995Y-97773864D01*
X86143223Y-97966965D01*
X86713454Y-97939778D01*
X87114005Y-97773864D01*
X87188139Y-97527745D01*
X86360000Y-96699605D01*
X85531861Y-97527745D01*
X84841663Y-97527745D01*
X85035824Y-97333923D01*
X85083448Y-97219232D01*
X85106136Y-97274005D01*
X85352255Y-97348139D01*
X86180395Y-96520000D01*
X85352255Y-95691861D01*
X85106136Y-95765995D01*
X85085195Y-95824254D01*
X85037243Y-95708200D01*
X84841640Y-95512255D01*
X85531861Y-95512255D01*
X86360000Y-96340395D01*
X87188139Y-95512255D01*
X87114005Y-95266136D01*
X86576777Y-95073035D01*
X86006546Y-95100222D01*
X85605995Y-95266136D01*
X85531861Y-95512255D01*
X84841640Y-95512255D01*
X84633923Y-95304176D01*
X84106691Y-95085250D01*
X83535813Y-95084752D01*
X83008200Y-95302757D01*
X82604176Y-95706077D01*
X82385250Y-96233309D01*
X82384752Y-96804187D01*
X74370000Y-96804187D01*
X74370000Y-89194092D01*
X75224092Y-88340000D01*
X163535908Y-88340000D01*
X164390000Y-89194092D01*
M02*
